<svg width="259" height="258" viewBox="0 0 259 258" fill="none" xmlns="http://www.w3.org/2000/svg">
<path d="M203.186 138.516L165.512 124.326C164.893 124.093 164.326 123.74 163.844 123.289C163.362 122.837 162.974 122.296 162.702 121.695C162.43 121.094 162.28 120.445 162.26 119.787C162.24 119.128 162.351 118.471 162.585 117.855L182.3 65.9146C182.773 64.6693 183.723 63.6621 184.941 63.1145C186.159 62.5668 187.546 62.5234 188.796 62.994L212.691 71.993L223.973 97.9478L209.682 135.616C209.205 136.857 208.253 137.86 207.036 138.403C205.818 138.947 204.434 138.987 203.186 138.516Z" fill="#F5F5F5"/>
<path d="M212.691 71.9922L207.138 86.6105C206.92 87.1841 206.817 87.7948 206.836 88.4079C206.855 89.021 206.995 89.6244 207.248 90.1836C207.501 90.7428 207.862 91.2468 208.311 91.667C208.759 92.0871 209.287 92.4151 209.863 92.6322L223.973 97.947L212.691 71.9922Z" fill="#EBEBEB"/>
<path d="M206.843 87.9688C206.843 87.9688 205.315 91.4466 208.915 94.1608C209.051 94.2619 209.192 94.355 209.339 94.4394C211.059 95.4714 222.372 102.179 222.476 101.906L223.968 97.974L209.857 92.6592C209.857 92.6592 206.387 91.1886 206.843 87.9688Z" fill="#E0E0E0"/>
<path d="M204.206 84.8268C204.133 85.0177 200.176 83.6968 195.364 81.8856C190.551 80.0744 186.708 78.449 186.78 78.2736C186.853 78.0982 190.81 79.4036 195.623 81.2148C200.435 83.026 204.278 84.6256 204.206 84.8268Z" fill="#E0E0E0"/>
<path d="M212.323 97.3332C212.25 97.519 205.775 95.2692 197.855 92.2712C189.935 89.2733 183.569 86.7139 183.641 86.523C183.714 86.3321 190.189 88.587 198.114 91.5901C206.04 94.5932 212.38 97.1423 212.323 97.3332Z" fill="#E0E0E0"/>
<path d="M212.287 105.208C212.214 105.394 205.159 102.912 196.524 99.6559C187.889 96.3999 180.948 93.6135 181.02 93.4278C181.093 93.242 188.148 95.724 196.783 98.9799C205.418 102.236 212.38 105.017 212.287 105.208Z" fill="#E0E0E0"/>
<path d="M209.816 111.72C209.743 111.906 202.688 109.424 194.053 106.168C185.418 102.912 178.477 100.105 178.549 99.9395C178.622 99.7744 185.677 102.236 194.312 105.486C202.947 108.737 209.888 111.529 209.816 111.72Z" fill="#E0E0E0"/>
<path d="M207.345 118.231C207.273 118.417 200.213 115.935 191.583 112.679C182.953 109.423 176.006 106.637 176.074 106.451C176.141 106.265 183.201 108.747 191.842 111.998C200.482 115.249 207.413 118.041 207.345 118.231Z" fill="#E0E0E0"/>
<path d="M204.87 124.743C204.802 124.929 197.742 122.442 189.112 119.191C180.482 115.94 173.531 113.149 173.603 112.963C173.676 112.777 180.731 115.259 189.366 118.51C198.001 121.761 204.942 124.552 204.87 124.743Z" fill="#E0E0E0"/>
<path d="M77.5793 84.5916L27.913 101.917C26.1958 102.516 25.2912 104.389 25.8926 106.099L50.8117 176.982C51.4131 178.693 53.2926 179.594 55.0099 178.995L104.676 161.669C106.393 161.07 107.298 159.198 106.697 157.487L81.7775 86.6042C81.1761 84.8936 79.2965 83.9925 77.5793 84.5916Z" fill="#EBEBEB"/>
<path d="M78.216 88.9983L30.1729 105.758L54.8711 176.013L102.914 159.253L78.216 88.9983Z" fill="#E0E0E0"/>
<path d="M77.3566 88.6682L29.3135 105.428L53.5409 174.343L101.584 157.584L77.3566 88.6682Z" fill="#FAFAFA"/>
<path d="M101.575 157.583L77.2858 88.6914L77.3739 88.7327L29.3397 105.497L29.3863 105.405C38.441 131.287 46.8688 155.193 53.5977 174.322L53.52 174.285L101.58 157.583L53.5562 174.409H53.4992V174.353C46.7652 155.224 38.3633 131.318 29.2568 105.441V105.368H29.3242L77.3635 88.6191H77.4308V88.6811L101.575 157.583Z" fill="#E0E0E0"/>
<path d="M84.5381 163.527C84.5381 163.527 95.2348 154.538 97.0892 145.178C96.0158 146.661 94.6519 147.913 93.0797 148.858C91.5075 149.802 89.7596 150.42 87.9413 150.673C87.9413 150.673 87.729 160.477 84.5381 163.527Z" fill="#E0E0E0"/>
<path d="M45.7318 120.783L43.2042 121.665C42.2808 121.987 41.7944 122.994 42.1178 123.914L43.0029 126.431C43.3263 127.351 44.337 127.836 45.2604 127.514L47.788 126.632C48.7114 126.31 49.1978 125.303 48.8744 124.383L47.9893 121.865C47.6659 120.945 46.6552 120.461 45.7318 120.783Z" fill="#EBEBEB"/>
<path d="M45.4241 125.121C45.4065 125.13 45.3869 125.135 45.3671 125.135C45.3473 125.135 45.3277 125.13 45.3101 125.121L44.1498 124.45C44.1217 124.429 44.1024 124.398 44.0955 124.363C44.0887 124.329 44.0947 124.293 44.1125 124.263C44.1303 124.232 44.1587 124.209 44.1923 124.198C44.2259 124.187 44.2623 124.189 44.2948 124.202L45.3308 124.791L46.5533 122.211C46.5711 122.176 46.6012 122.15 46.6377 122.136C46.6741 122.123 46.7142 122.124 46.7502 122.138C46.7677 122.147 46.7834 122.158 46.7963 122.173C46.8092 122.187 46.8191 122.204 46.8254 122.222C46.8317 122.241 46.8342 122.26 46.8329 122.279C46.8315 122.298 46.8263 122.317 46.8175 122.335L45.5277 125.08C45.5144 125.094 45.4982 125.104 45.4804 125.111C45.4625 125.119 45.4433 125.122 45.4241 125.121Z" fill="white"/>
<path d="M78.5967 110.116C78.5967 110.157 72.3807 112.371 64.6676 115.059C56.9546 117.747 50.6816 119.894 50.6816 119.858C50.6816 119.822 56.8976 117.603 64.6158 114.914C72.334 112.226 78.5863 110.08 78.5967 110.116Z" fill="#E0E0E0"/>
<path d="M63.9475 120.033C63.9475 120.033 63.787 120.105 63.4969 120.219L62.2433 120.683C61.2073 121.065 59.7155 121.586 58.0993 122.154C56.4832 122.722 54.9913 123.227 53.9553 123.583L52.6862 124.001C52.5326 124.057 52.3751 124.102 52.2148 124.135C52.3597 124.06 52.5104 123.996 52.6655 123.944L53.9191 123.485C54.9551 123.098 56.4469 122.577 58.0631 122.009C59.6792 121.442 61.1711 120.941 62.2071 120.58L63.4762 120.162C63.6293 120.106 63.787 120.063 63.9475 120.033Z" fill="#E0E0E0"/>
<path d="M79.2542 112.014C79.2542 112.05 73.0382 114.264 65.32 116.952C57.6018 119.641 51.334 121.792 51.334 121.751C51.334 121.71 57.55 119.501 65.2734 116.813C72.9967 114.125 79.2542 111.973 79.2542 112.014Z" fill="#E0E0E0"/>
<path d="M49.3402 131.051L46.8126 131.932C45.8892 132.254 45.4028 133.261 45.7262 134.181L46.6113 136.699C46.9347 137.619 47.9454 138.103 48.8688 137.781L51.3964 136.9C52.3198 136.577 52.8062 135.571 52.4828 134.651L51.5977 132.133C51.2743 131.213 50.2636 130.729 49.3402 131.051Z" fill="#EBEBEB"/>
<path d="M49.0338 135.389C49.0153 135.398 48.9949 135.402 48.9742 135.402C48.9536 135.402 48.9332 135.398 48.9146 135.389L47.7595 134.718C47.7428 134.709 47.7281 134.696 47.7163 134.681C47.7045 134.666 47.696 134.649 47.6911 134.631C47.6863 134.613 47.6852 134.593 47.6881 134.575C47.6909 134.556 47.6976 134.538 47.7077 134.522C47.7168 134.505 47.7293 134.49 47.7443 134.479C47.7593 134.467 47.7765 134.458 47.7949 134.454C47.8134 134.449 47.8326 134.448 47.8515 134.451C47.8703 134.453 47.8884 134.46 47.9045 134.47L48.9405 135.058L50.163 132.453C50.1799 132.419 50.209 132.392 50.2446 132.379C50.2801 132.365 50.3195 132.366 50.3547 132.38C50.3897 132.396 50.417 132.425 50.4306 132.461C50.4442 132.497 50.443 132.536 50.4272 132.571L49.1374 135.322C49.1259 135.339 49.1107 135.355 49.0928 135.366C49.075 135.378 49.0548 135.385 49.0338 135.389Z" fill="white"/>
<path d="M82.2073 120.383C82.2073 120.425 75.9913 122.633 68.2731 125.327C60.5549 128.02 54.2871 130.161 54.2871 130.125C54.2871 130.089 60.5031 127.87 68.2213 125.182C75.9395 122.494 82.1969 120.347 82.2073 120.383Z" fill="#E0E0E0"/>
<path d="M67.5579 130.301C67.5579 130.301 67.3973 130.373 67.1021 130.487L65.8537 130.951C64.8177 131.333 63.3258 131.854 61.7097 132.422C60.0935 132.989 58.6017 133.495 57.5657 133.851L56.2966 134.269C56.143 134.325 55.9854 134.37 55.8252 134.403C55.9694 134.326 56.1202 134.262 56.2759 134.212L57.5294 133.753C58.5654 133.366 60.0573 132.845 61.6734 132.277C63.2896 131.709 64.7814 131.209 65.8174 130.848L67.0865 130.43C67.2396 130.373 67.3973 130.33 67.5579 130.301Z" fill="#E0E0E0"/>
<path d="M82.8802 122.292C82.8802 122.328 76.6642 124.542 68.946 127.23C61.2278 129.918 54.96 132.07 54.96 132.029C54.96 131.988 61.176 129.779 68.8942 127.091C76.6124 124.402 82.8802 122.24 82.8802 122.292Z" fill="#E0E0E0"/>
<path d="M52.9535 141.318L50.4259 142.2C49.5025 142.522 49.0161 143.529 49.3394 144.449L50.2246 146.967C50.5479 147.886 51.5587 148.371 52.4821 148.049L55.0096 147.167C55.9331 146.845 56.4195 145.838 56.0961 144.918L55.211 142.4C54.8876 141.481 53.8769 140.996 52.9535 141.318Z" fill="#EBEBEB"/>
<path d="M52.6448 145.657C52.6263 145.666 52.6059 145.671 52.5853 145.671C52.5646 145.671 52.5442 145.666 52.5257 145.657L51.3654 144.997C51.3465 144.989 51.3295 144.977 51.3156 144.962C51.3017 144.947 51.2911 144.929 51.2847 144.909C51.2782 144.89 51.276 144.869 51.2781 144.849C51.2803 144.828 51.2867 144.809 51.2971 144.791C51.3075 144.773 51.3215 144.758 51.3382 144.746C51.355 144.734 51.3741 144.726 51.3942 144.722C51.4144 144.718 51.4352 144.719 51.4552 144.723C51.4753 144.728 51.4941 144.737 51.5104 144.749L52.5464 145.337L53.7689 142.732C53.7761 142.713 53.787 142.697 53.8008 142.683C53.8147 142.669 53.8311 142.658 53.8493 142.651C53.8675 142.644 53.8869 142.64 53.9065 142.641C53.9261 142.641 53.9454 142.645 53.9632 142.653C53.9811 142.661 53.9971 142.673 54.0103 142.687C54.0236 142.702 54.0338 142.719 54.0403 142.737C54.0469 142.755 54.0496 142.775 54.0483 142.794C54.0471 142.814 54.0419 142.833 54.0331 142.85L52.7432 145.6C52.7179 145.63 52.6832 145.65 52.6448 145.657Z" fill="white"/>
<path d="M85.8177 130.653C85.8177 130.694 79.6017 132.903 71.8835 135.596C64.1653 138.29 57.8975 140.431 57.8975 140.39C57.8975 140.348 64.1135 138.14 71.8368 135.452C79.5602 132.763 85.8021 130.617 85.8177 130.653Z" fill="#E0E0E0"/>
<path d="M71.1685 140.564C71.0215 140.639 70.8692 140.703 70.7127 140.755L69.4591 141.22C68.4231 141.602 66.9365 142.123 65.3151 142.69C63.6938 143.258 62.2071 143.758 61.1711 144.12L59.902 144.538C59.7482 144.593 59.5907 144.638 59.4307 144.672C59.5749 144.595 59.7257 144.531 59.8813 144.481L61.1349 144.016C62.1709 143.635 63.6627 143.113 65.2789 142.546C66.895 141.978 68.3869 141.478 69.4229 141.117L70.6868 140.699C70.8447 140.645 71.0055 140.6 71.1685 140.564Z" fill="#E0E0E0"/>
<path d="M86.5061 132.551C86.5061 132.587 80.2901 134.801 72.5719 137.489C64.8537 140.178 58.5859 142.33 58.5859 142.288C58.5859 142.247 64.8019 140.039 72.5201 137.345C80.2383 134.651 86.4699 132.51 86.5061 132.551Z" fill="#E0E0E0"/>
<path d="M56.5609 151.586L54.0333 152.468C53.1099 152.79 52.6235 153.796 52.9469 154.716L53.832 157.234C54.1554 158.154 55.1661 158.639 56.0895 158.316L58.6171 157.435C59.5405 157.113 60.0269 156.106 59.7035 155.186L58.8184 152.668C58.495 151.748 57.4843 151.264 56.5609 151.586Z" fill="#EBEBEB"/>
<path d="M56.2497 155.925C56.2317 155.933 56.2123 155.937 56.1927 155.937C56.1731 155.937 56.1537 155.933 56.1357 155.925L54.9754 155.254C54.9424 155.234 54.9187 155.202 54.9095 155.165C54.9003 155.128 54.9063 155.088 54.9262 155.055C54.9461 155.023 54.9783 154.999 55.0157 154.99C55.0531 154.981 55.0927 154.987 55.1256 155.006L56.1616 155.595L57.3841 153.015C57.3999 152.98 57.429 152.953 57.4649 152.939C57.5009 152.925 57.5407 152.927 57.5758 152.942C57.6099 152.959 57.6363 152.988 57.6498 153.024C57.6632 153.059 57.6627 153.098 57.6483 153.133L56.3533 155.884C56.3254 155.91 56.2883 155.925 56.2497 155.925Z" fill="white"/>
<path d="M89.428 140.921C89.428 140.962 83.212 143.171 75.4938 145.859C67.7756 148.547 61.5078 150.699 61.5078 150.658C61.5078 150.616 67.7238 148.408 75.442 145.72C83.1602 143.031 89.4125 140.869 89.428 140.921Z" fill="#E0E0E0"/>
<path d="M74.7737 150.832C74.6295 150.909 74.4787 150.973 74.3231 151.023L73.0695 151.487C72.0335 151.869 70.5417 152.39 68.9255 152.958C67.3093 153.526 65.8175 154.026 64.7815 154.387L63.5124 154.805C63.212 154.898 63.041 154.945 63.041 154.939C63.1853 154.863 63.3361 154.799 63.4917 154.748L64.7452 154.284C65.7812 153.902 67.2731 153.381 68.8892 152.813C70.5054 152.246 71.9972 151.745 73.0332 151.384L74.3023 150.966C74.4562 150.911 74.6137 150.866 74.7737 150.832Z" fill="#E0E0E0"/>
<path d="M90.096 142.819C90.096 142.855 83.88 145.069 76.1618 147.757C68.4436 150.445 62.1758 152.592 62.1758 152.556C62.1758 152.52 68.3918 150.306 76.11 147.613C83.8282 144.919 90.0804 142.778 90.096 142.819Z" fill="#E0E0E0"/>
<path d="M34.7529 98.7124L36.0169 102.324C36.3703 103.33 37.1101 104.155 38.0737 104.617C39.0372 105.08 40.1456 105.142 41.1554 104.791L67.7288 95.5029C68.2284 95.3292 68.6887 95.059 69.0833 94.7078C69.478 94.3567 69.7992 93.9315 70.0287 93.4565C70.2582 92.9816 70.3915 92.4662 70.4208 91.9399C70.4501 91.4136 70.375 90.8867 70.1997 90.3893L68.9358 86.7773L34.7529 98.7124Z" fill="#E0E0E0"/>
<path d="M52.1995 93.8201C51.4936 94.0675 50.7299 94.1007 50.005 93.9155C49.2801 93.7303 48.6267 93.335 48.1275 92.7797C47.6283 92.2244 47.3057 91.534 47.2006 90.7959C47.0955 90.0579 47.2125 89.3053 47.537 88.6336C47.8615 87.9619 48.3787 87.4011 49.0233 87.0224C49.6678 86.6437 50.4107 86.4639 51.1579 86.506C51.905 86.5481 52.6228 86.81 53.2204 87.2587C53.818 87.7074 54.2686 88.3226 54.515 89.0264C54.8446 89.968 54.786 91.0014 54.352 91.9C53.9179 92.7986 53.1439 93.4891 52.1995 93.8201ZM50.1793 88.077C49.744 88.2284 49.3635 88.5051 49.086 88.872C48.8085 89.2389 48.6464 89.6795 48.6204 90.1381C48.5944 90.5968 48.7055 91.0528 48.9397 91.4485C49.1739 91.8442 49.5207 92.1618 49.9361 92.3612C50.3516 92.5605 50.8171 92.6327 51.2737 92.5684C51.7303 92.5042 52.1576 92.3064 52.5013 92.0003C52.8451 91.6941 53.09 91.2932 53.205 90.8484C53.32 90.4035 53.3 89.9347 53.1475 89.5012C52.9431 88.9205 52.5158 88.4443 51.9592 88.1773C51.4027 87.9102 50.7625 87.8742 50.1793 88.077Z" fill="#E0E0E0"/>
<path d="M73.4375 103.202C73.4375 103.269 66.4548 105.782 57.7887 108.8C49.1225 111.819 42.0777 114.218 42.0518 114.151C42.0259 114.084 49.0345 111.571 57.7006 108.552C66.3667 105.534 73.4116 103.114 73.4375 103.202Z" fill="#E0E0E0"/>
<path d="M64.4605 104.464C64.4605 104.531 61.4043 105.672 57.5763 107.008C53.7482 108.344 50.6247 109.392 50.5988 109.299C50.5729 109.206 53.6602 108.092 57.4882 106.755C61.3162 105.419 64.4398 104.397 64.4605 104.464Z" fill="#E0E0E0"/>
<path d="M202.538 209.021C204.445 208.129 206.59 207.87 208.656 208.283C209.764 208.464 210.924 208.799 211.676 209.625C212.427 210.45 212.577 211.916 211.707 212.628C211.145 213.008 210.466 213.178 209.79 213.108C208.169 213.108 206.376 212.803 205.087 213.773C204.346 214.326 203.859 215.244 202.978 215.518C202.535 215.62 202.07 215.575 201.656 215.389C201.241 215.202 200.899 214.885 200.684 214.486C200.265 213.678 200.172 212.742 200.425 211.869C200.533 211.265 200.78 210.693 201.147 210.199C201.513 209.705 201.99 209.302 202.538 209.021Z" fill="#29935C"/>
<path d="M198.249 200.827C199.389 202.442 201.6 201.91 202.626 200.92C203.652 199.929 204.082 198.5 204.475 197.137C205.377 194.016 206.288 190.744 205.62 187.566C205.454 186.61 205.029 185.718 204.392 184.986C204.068 184.622 203.653 184.349 203.189 184.195C202.726 184.042 202.23 184.011 201.751 184.108C200.632 184.402 199.943 185.491 199.44 186.523C197.963 189.583 197.19 192.932 197.177 196.327C197.177 197.906 197.358 199.557 198.249 200.863" fill="#29935C"/>
<path d="M195.126 203.149C195.711 202.388 196.101 201.496 196.261 200.551C196.422 199.606 196.349 198.636 196.048 197.726C195.422 195.913 194.307 194.306 192.826 193.082C191.142 191.589 189.182 190.437 187.055 189.692C186.234 189.361 185.35 189.211 184.465 189.253C184.023 189.278 183.593 189.41 183.214 189.639C182.835 189.867 182.517 190.185 182.29 190.564C181.678 191.719 182.29 193.118 182.89 194.258C183.999 196.271 185.267 198.194 186.682 200.006C187.817 201.467 189.117 202.906 190.852 203.567C192.587 204.227 194.38 204.145 195.297 202.953" fill="#29935C"/>
<path d="M198.176 225.238C198.233 224.998 198.266 224.752 198.275 224.506C198.332 223.99 198.394 223.298 198.472 222.498C198.571 221.509 198.723 220.525 198.928 219.552C199.191 218.368 199.549 217.206 200 216.079C200.442 214.953 201.042 213.896 201.782 212.937C202.384 212.155 203.154 211.517 204.035 211.069C204.632 210.774 205.272 210.575 205.931 210.481C206.179 210.472 206.426 210.437 206.667 210.378C206.417 210.351 206.165 210.351 205.915 210.378C205.232 210.432 204.564 210.607 203.942 210.894C203.014 211.328 202.2 211.971 201.564 212.772C200.795 213.746 200.173 214.827 199.72 215.981C199.261 217.124 198.903 218.305 198.653 219.511C198.462 220.496 198.331 221.492 198.259 222.493C198.192 223.345 198.171 224.041 198.161 224.511C198.137 224.753 198.143 224.997 198.176 225.238Z" fill="#263238"/>
<path d="M198.311 223.695C198.327 223.582 198.327 223.467 198.311 223.354V222.395C198.311 221.548 198.311 220.331 198.353 218.783C198.431 215.754 198.689 212.498 199.197 207.905C199.674 203.586 200.316 198.561 200.995 195.294C201.14 194.551 201.285 193.88 201.425 193.297C201.564 192.714 201.668 192.203 201.777 191.796C201.886 191.388 201.943 191.094 202.005 190.846C202.033 190.734 202.054 190.621 202.067 190.506C202.015 190.608 201.975 190.715 201.948 190.826C201.87 191.073 201.777 191.383 201.663 191.765C201.549 192.147 201.404 192.673 201.259 193.256C201.114 193.839 200.943 194.505 200.782 195.248C199.952 199.117 199.328 203.027 198.912 206.961C198.394 211.564 198.177 215.733 198.161 218.788C198.161 220.305 198.161 221.533 198.213 222.4C198.213 222.797 198.254 223.122 198.27 223.375C198.274 223.483 198.288 223.59 198.311 223.695Z" fill="#263238"/>
<path d="M198.332 215.614C198.36 215.271 198.36 214.926 198.332 214.582C198.273 213.657 198.167 212.736 198.016 211.822C197.793 210.464 197.492 209.12 197.114 207.797C196.676 206.168 196.111 204.576 195.426 203.034C194.253 200.192 192.574 197.586 190.468 195.341C190.101 194.957 189.71 194.597 189.298 194.262C189.121 194.107 188.961 193.958 188.78 193.839L188.329 193.529C188.057 193.322 187.768 193.139 187.464 192.982C188.458 193.757 189.401 194.594 190.287 195.49C192.329 197.751 193.966 200.345 195.125 203.158C195.797 204.69 196.364 206.266 196.824 207.874C197.214 209.184 197.534 210.514 197.782 211.858C197.995 213.008 198.119 213.922 198.192 214.593C198.213 214.936 198.26 215.277 198.332 215.614Z" fill="#263238"/>
<path d="M190.489 229.871L191.303 240.965H205.615L206.423 229.871H190.489Z" fill="#263238"/>
<path d="M208.137 225.496H189.111V229.872H208.137V225.496Z" fill="#263238"/>
<path d="M189.111 240.543V241.75H190.002H207.816V240.543H189.111Z" fill="#455A64"/>
<path d="M190.877 243.886L190.002 241.75H207.137L206.112 243.886H190.877Z" fill="#455A64"/>
<path d="M206.164 233.493C206.164 233.493 206.164 233.535 206.097 233.597L205.884 233.88L205.05 234.943L205.014 234.99L204.978 234.938L202.932 232.121H203.056L201.036 234.964L200.974 235.052L200.901 234.969L198.513 232.131H198.648L198.518 232.296L196.379 234.964L196.312 235.057L196.244 234.964C195.519 233.932 194.841 232.982 194.224 232.121H194.343L191.862 234.938L191.815 234.99L191.779 234.933C191.453 234.386 191.194 233.947 191.002 233.633L190.805 233.287C190.779 233.249 190.758 233.207 190.743 233.163C190.743 233.163 190.774 233.194 190.826 233.271L191.049 233.607L191.862 234.881H191.784L194.229 232.028L194.291 231.956L194.348 232.033L196.384 234.866H196.244L198.394 232.198L198.529 232.033L198.596 231.945L198.663 232.028L201.051 234.871H200.917L202.952 232.038L203.009 231.956L203.072 232.038C203.874 233.189 204.563 234.164 205.076 234.892H204.999L205.869 233.86L206.102 233.591L206.164 233.493Z" fill="#E0E0E0"/>
<path d="M206.625 229.795C206.625 229.846 203.04 229.888 198.617 229.888C194.193 229.888 190.608 229.846 190.608 229.795C190.608 229.743 194.193 229.707 198.617 229.707C203.04 229.707 206.625 229.748 206.625 229.795Z" fill="#455A64"/>
<path d="M207.35 241.874C207.35 241.921 203.45 241.962 198.648 241.962C193.846 241.962 189.945 241.921 189.945 241.874C189.945 241.828 193.841 241.781 198.648 241.781C203.455 241.781 207.35 241.823 207.35 241.874Z" fill="#263238"/>
<path d="M66.1999 206.477C66.1584 206.523 65.8321 206.327 65.4695 206.038C65.1069 205.749 64.8427 205.476 64.8842 205.424C64.9256 205.372 65.2468 205.574 65.6094 205.863C65.972 206.152 66.2361 206.425 66.1999 206.477Z" fill="#263238"/>
<path d="M76.1459 191.698C76.287 190.321 76.1729 188.931 75.8092 187.595C75.3741 186.28 74.3588 185.077 73.0017 184.794C71.4477 184.474 69.8626 185.449 68.9924 186.77C68.1221 188.091 67.8269 189.69 67.5679 191.244C65.8006 201.976 65.1496 212.861 65.6254 223.726L71.9657 224.613C74.7266 213.277 75.6279 203.364 76.1459 191.698Z" fill="#455A64"/>
<path d="M72.0952 184.727L72.0641 184.83L71.9605 185.114L71.5357 186.207C71.4477 186.445 71.3285 186.723 71.2353 186.997L70.9297 187.952L70.5723 189.051L70.2459 190.305C69.7136 192.376 69.3037 194.476 69.0183 196.595C68.6764 198.968 68.4536 201.6 68.2723 204.366C67.9512 209.902 67.8994 214.928 67.7543 218.561C67.687 220.382 67.6248 221.853 67.5575 222.864C67.5212 223.38 67.4953 223.746 67.4746 224.035C67.4746 224.154 67.4746 224.257 67.4746 224.335C67.4746 224.412 67.4746 224.438 67.4746 224.438C67.4746 224.438 67.4746 224.407 67.4746 224.335C67.4746 224.262 67.4746 224.154 67.4746 224.03C67.4746 223.746 67.4746 223.354 67.5109 222.859C67.5523 221.827 67.5886 220.377 67.6352 218.556C67.7388 214.944 67.7647 209.897 68.091 204.355C68.2672 201.584 68.5003 198.948 68.8525 196.564C69.1496 194.451 69.5769 192.359 70.132 190.299L70.4738 189.045C70.6085 188.66 70.7328 188.294 70.8468 187.946L71.1783 186.992C71.2767 186.703 71.4011 186.445 71.4943 186.207L71.9605 185.134C72.0088 185.021 72.0503 184.928 72.0848 184.856C72.0811 184.812 72.0846 184.769 72.0952 184.727Z" fill="#263238"/>
<path d="M72.6805 184.752C73.0109 185.141 73.2736 185.582 73.4575 186.057C73.9423 187.363 74.1384 188.757 74.0325 190.144C73.8667 193.637 73.5507 198.447 73.1363 203.761C72.7219 209.076 72.2505 213.875 71.8776 217.348C71.6859 219.081 71.5253 220.485 71.4062 221.476C71.344 221.945 71.2974 222.317 71.2612 222.59L71.2197 222.879C71.2221 222.912 71.2221 222.945 71.2197 222.977C71.2197 222.977 71.2197 222.946 71.2197 222.879C71.2197 222.812 71.2197 222.704 71.2197 222.585C71.2197 222.312 71.2767 221.94 71.3181 221.465C71.4166 220.475 71.5512 219.076 71.717 217.337C72.0485 213.86 72.4888 209.081 72.9084 203.746C73.328 198.41 73.6647 193.627 73.8719 190.144C73.9847 188.773 73.8082 187.393 73.3539 186.094C73.1697 185.627 72.9443 185.178 72.6805 184.752Z" fill="#263238"/>
<path d="M77.0788 201.105C76.6627 201.075 76.2555 200.97 75.877 200.795C75.4746 200.691 75.094 200.516 74.7529 200.279C75.1695 200.306 75.5772 200.411 75.9547 200.589C76.3575 200.692 76.7383 200.867 77.0788 201.105Z" fill="#263238"/>
<path d="M77.8447 194.666C77.5012 194.939 77.1143 195.154 76.6999 195.301C76.315 195.513 75.8962 195.658 75.4619 195.729C76.1883 195.24 76.9946 194.88 77.8447 194.666Z" fill="#263238"/>
<path d="M77.4464 189.408C76.8203 189.521 76.1759 189.477 75.5713 189.279C75.8778 189.192 76.2004 189.176 76.5141 189.233C76.8343 189.219 77.1535 189.279 77.4464 189.408Z" fill="#263238"/>
<path d="M70.8989 186.042C70.8471 186.073 70.5674 185.728 70.2825 185.274C70.0751 185.011 69.9283 184.706 69.8525 184.381C69.9043 184.35 70.1841 184.69 70.4741 185.15C70.7642 185.609 70.9662 186.006 70.8989 186.042Z" fill="#263238"/>
<path d="M68.7389 189.221C68.4504 189.324 68.1411 189.356 67.8376 189.314C67.5323 189.343 67.2246 189.297 66.9414 189.179C67.2298 189.076 67.5392 189.044 67.8427 189.087C68.148 189.057 68.4557 189.103 68.7389 189.221Z" fill="#263238"/>
<path d="M67.1841 195.563C66.8526 195.55 66.5284 195.462 66.2362 195.305C65.9164 195.215 65.6209 195.055 65.3711 194.836C65.7026 194.849 66.0268 194.937 66.319 195.094C66.6388 195.185 66.9343 195.345 67.1841 195.563Z" fill="#263238"/>
<path d="M67.0187 200.925C67.0187 200.987 66.6717 201.116 66.2106 201.209C65.7496 201.302 65.3715 201.338 65.3559 201.276C65.3404 201.214 65.7082 201.085 66.164 200.992C66.4389 200.9 66.7326 200.877 67.0187 200.925Z" fill="#263238"/>
<path d="M66.3039 209.675C66.3039 209.737 65.9309 209.856 65.444 209.944C65.1531 210.03 64.8455 210.044 64.5479 209.985C64.8091 209.83 65.1041 209.74 65.4077 209.722C65.6979 209.633 66.0059 209.617 66.3039 209.675Z" fill="#263238"/>
<path d="M65.7857 214.506C65.8168 214.557 65.4957 214.784 65.0709 215.022C64.6461 215.259 64.2784 215.383 64.2525 215.326C64.2266 215.27 64.5425 215.048 64.9673 214.81C65.3921 214.573 65.7857 214.449 65.7857 214.506Z" fill="#263238"/>
<path d="M69.7593 219.985C69.7075 220.016 69.4277 219.634 69.1377 219.128C68.9278 218.839 68.783 218.508 68.7129 218.158C68.7647 218.127 69.0444 218.509 69.3345 219.015C69.5443 219.304 69.6892 219.635 69.7593 219.985Z" fill="#263238"/>
<path d="M70.904 210.878C70.9454 210.919 70.6346 211.296 70.2098 211.714C69.7851 212.132 69.4018 212.431 69.3552 212.385C69.3085 212.338 69.6245 211.967 70.0493 211.549C70.474 211.131 70.8574 210.831 70.904 210.878Z" fill="#263238"/>
<path d="M70.6495 206.094C70.6029 206.141 70.318 205.904 70.0072 205.578C69.6964 205.253 69.4892 204.939 69.5307 204.897C69.5721 204.856 69.8622 205.088 70.173 205.413C70.4838 205.738 70.6962 206.053 70.6495 206.094Z" fill="#263238"/>
<path d="M71.437 199.99C71.4836 200.031 71.2246 200.398 70.8568 200.8C70.489 201.203 70.1575 201.507 70.1109 201.466C70.0643 201.425 70.3233 201.058 70.6859 200.651C71.0485 200.243 71.3904 199.949 71.437 199.99Z" fill="#263238"/>
<path d="M71.8775 195.564C71.8309 195.61 71.4735 195.327 71.0695 194.934C70.6654 194.542 70.3805 194.186 70.422 194.14C70.4634 194.093 70.826 194.377 71.23 194.774C71.6341 195.172 71.919 195.517 71.8775 195.564Z" fill="#263238"/>
<path d="M72.7483 189.566C72.6797 189.892 72.54 190.198 72.3391 190.464C72.0646 190.929 71.7952 191.279 71.7434 191.249C71.6916 191.218 71.8677 190.815 72.1474 190.351C72.4272 189.886 72.6913 189.535 72.7483 189.566Z" fill="#263238"/>
<path d="M74.3797 184.015C74.4367 184.046 74.2761 184.448 74.0223 184.913C73.7685 185.377 73.5043 185.733 73.4629 185.707C73.5122 185.385 73.6344 185.078 73.8203 184.81C74.0741 184.34 74.3228 183.989 74.3797 184.015Z" fill="#263238"/>
<path d="M76.2337 186.537C76.2596 186.594 76.0058 186.77 75.6639 186.935C75.322 187.1 75.0267 187.182 75.0008 187.126C74.9749 187.069 75.2288 186.893 75.5706 186.728C75.9125 186.563 76.2078 186.481 76.2337 186.537Z" fill="#263238"/>
<path d="M76.2754 206.476C75.415 206.413 74.6001 206.066 73.96 205.49C74.3633 205.612 74.7536 205.773 75.1255 205.97C75.5251 206.099 75.9105 206.269 76.2754 206.476Z" fill="#263238"/>
<path d="M75.5194 210.698C75.5194 210.76 75.1516 210.884 74.6647 210.976C74.3753 211.069 74.0674 211.088 73.7686 211.033C74.0277 210.875 74.3204 210.78 74.6233 210.755C75.1102 210.662 75.509 210.636 75.5194 210.698Z" fill="#263238"/>
<path d="M74.592 217.936C74.5557 217.988 74.074 217.652 73.6285 217.095C73.3319 216.777 73.1231 216.387 73.0225 215.965C73.3119 216.272 73.5737 216.603 73.8046 216.956C74.0968 217.258 74.3603 217.586 74.592 217.936Z" fill="#263238"/>
<path d="M64.3921 221.249C64.3506 221.202 64.6096 220.913 64.967 220.609C65.3245 220.304 65.6508 220.093 65.6922 220.144C65.7337 220.196 65.4747 220.475 65.1173 220.784C64.7598 221.094 64.4335 221.295 64.3921 221.249Z" fill="#263238"/>
<path d="M61.4604 205.45C61.046 204.165 60.2741 202.669 58.9222 202.648C58.5193 202.67 58.1298 202.799 57.7944 203.023C57.459 203.246 57.1901 203.555 57.0159 203.918C56.6438 204.634 56.4653 205.434 56.4979 206.24C56.6649 211.959 57.6432 217.626 59.4039 223.072H64.3612C64.3011 217.085 63.3229 211.143 61.4604 205.45Z" fill="#455A64"/>
<path d="M52.5045 197.365C52.2593 196.161 51.6154 195.074 50.6761 194.279C49.7367 193.484 48.5564 193.026 47.3245 192.979C45.1334 193.36 44.2839 195.507 44.0249 197.705C43.7659 199.903 44.4496 202.091 45.1282 204.202C47.2969 210.971 49.469 217.743 51.6446 224.516L57.8088 223.846C55.8819 214.774 54.763 206.364 52.5045 197.365Z" fill="#455A64"/>
<path d="M58.9225 202.648C58.7623 202.868 58.6219 203.101 58.5029 203.345C58.2474 204.043 58.1673 204.792 58.2698 205.528C58.363 206.467 58.4718 207.592 58.6324 208.83C58.793 210.069 59.0157 211.41 59.2954 212.845C59.8549 215.683 60.4868 218.221 60.8857 220.069C61.0877 220.992 61.2431 221.746 61.3364 222.267C61.3778 222.509 61.414 222.705 61.4399 222.87C61.4658 223.036 61.471 223.082 61.4399 223.082C61.413 223.017 61.3922 222.95 61.3778 222.881L61.2327 222.287C61.0981 221.735 60.9219 220.997 60.7147 220.105C60.2744 218.257 59.6166 215.724 59.0571 212.881C58.7774 211.457 58.5391 210.094 58.4096 208.846C58.3268 208.226 58.275 207.628 58.2232 207.076C58.1714 206.524 58.1196 206.002 58.0937 205.528C58.0051 204.77 58.1121 204.003 58.4045 203.299C58.5278 203.047 58.7045 202.825 58.9225 202.648Z" fill="#263238"/>
<path d="M47.4387 192.803C47.164 193.115 46.9146 193.448 46.6927 193.799C46.1254 194.78 45.8038 195.882 45.7552 197.013C45.7294 198.69 45.9868 200.36 46.5166 201.951C47.0346 203.778 47.651 205.785 48.2778 207.885C49.5055 212.096 50.614 215.904 51.4273 218.685L52.3597 221.967C52.4633 222.339 52.541 222.633 52.6031 222.86C52.637 222.962 52.6596 223.067 52.6705 223.175C52.623 223.079 52.5848 222.978 52.5565 222.875C52.4892 222.648 52.3907 222.359 52.2768 221.988C52.0333 221.198 51.6914 220.089 51.277 218.732L48.0603 207.947C47.4387 205.837 46.8533 203.819 46.3146 202.003C45.7869 200.388 45.5433 198.695 45.5946 196.998C45.6613 195.845 46.0176 194.727 46.6306 193.747C46.8458 193.39 47.1188 193.071 47.4387 192.803Z" fill="#263238"/>
<path d="M56.4878 223.189C56.4356 223.094 56.3889 222.996 56.3479 222.895C56.2702 222.694 56.1407 222.41 56.0008 222.028C55.7056 221.275 55.3274 220.165 54.9648 218.772C54.6022 217.379 54.1878 215.676 53.8149 213.819C53.4419 211.961 53.069 209.882 52.6546 207.714C52.2402 205.547 51.7532 203.509 51.199 201.687C50.7181 200.068 50.1173 198.487 49.4015 196.956C48.9149 195.926 48.3594 194.929 47.7387 193.973C47.5264 193.633 47.3347 193.38 47.2207 193.204C47.1559 193.117 47.0987 193.023 47.0498 192.926C47.1258 193.002 47.1951 193.085 47.257 193.173C47.3865 193.349 47.5885 193.586 47.8113 193.927C48.4664 194.867 49.0466 195.858 49.5466 196.889C50.2896 198.416 50.908 200 51.3958 201.626C51.9808 203.615 52.4615 205.634 52.8359 207.673C53.2451 209.835 53.6284 211.899 53.9806 213.782C54.3329 215.666 54.7058 217.333 55.0788 218.731C55.4518 220.129 55.7988 221.239 56.0682 221.997C56.1925 222.384 56.3116 222.673 56.379 222.874C56.427 222.975 56.4635 223.081 56.4878 223.189Z" fill="#263238"/>
<path d="M45.2629 203.189C45.2629 203.245 44.9418 203.38 44.5118 203.483C44.0819 203.586 43.7245 203.622 43.7141 203.56C43.7037 203.498 44.0301 203.369 44.46 203.266C44.89 203.163 45.2474 203.127 45.2629 203.189Z" fill="#263238"/>
<path d="M44.6101 199C44.2734 199.095 43.9233 199.133 43.5741 199.114C43.2295 199.162 42.8791 199.152 42.5381 199.083C42.8607 198.93 43.2176 198.862 43.5741 198.887C43.9235 198.836 44.2801 198.875 44.6101 199Z" fill="#263238"/>
<path d="M45.3041 195.171C45.2626 195.222 44.9259 195.006 44.5581 194.691C44.1904 194.376 43.9158 194.082 43.9573 194.036C43.9987 193.989 44.3302 194.201 44.7032 194.516C45.0761 194.83 45.3455 195.124 45.3041 195.171Z" fill="#263238"/>
<path d="M47.1847 191.631C47.2469 191.631 47.2262 191.946 47.221 192.302C47.2158 192.658 47.221 192.963 47.1433 192.973C47.0656 192.983 46.9827 192.684 46.9931 192.297C47.0034 191.91 47.1381 191.616 47.1847 191.631Z" fill="#263238"/>
<path d="M51.0226 193.298C51.0744 193.335 50.9242 193.639 50.6859 193.974C50.4476 194.31 50.2145 194.558 50.1679 194.521C50.1213 194.485 50.2663 194.186 50.4994 193.845C50.7325 193.505 50.9708 193.262 51.0226 193.298Z" fill="#263238"/>
<path d="M53.5142 197.628C53.5142 197.69 53.2189 197.87 52.8045 198.04C52.3901 198.211 52.0275 198.298 52.0068 198.242C51.9861 198.185 52.3021 197.999 52.7165 197.834C53.1309 197.669 53.4935 197.555 53.5142 197.628Z" fill="#263238"/>
<path d="M55.0272 202.049C54.7531 202.286 54.4138 202.435 54.0534 202.477C53.7081 202.588 53.3384 202.601 52.9863 202.513C53.3187 202.382 53.6671 202.295 54.0223 202.255C54.3476 202.146 54.6851 202.077 55.0272 202.049Z" fill="#263238"/>
<path d="M48.0861 200.79C48.0292 200.79 48.0861 200.465 48.1846 200.103C48.283 199.742 48.4384 199.469 48.4954 199.489C48.5523 199.51 48.4954 199.814 48.3969 200.176C48.2985 200.537 48.1742 200.81 48.0861 200.79Z" fill="#263238"/>
<path d="M49.0547 206.363C49.0756 206.038 49.1713 205.722 49.3344 205.439C49.5468 204.954 49.7643 204.583 49.8213 204.609C49.8004 204.934 49.7047 205.25 49.5416 205.532C49.3292 206.017 49.1117 206.399 49.0547 206.363Z" fill="#263238"/>
<path d="M46.6609 207.89C46.3557 207.882 46.0548 207.816 45.7752 207.694C45.3038 207.544 44.9205 207.41 44.936 207.348C45.2443 207.309 45.5576 207.353 45.8425 207.477C46.3242 207.627 46.6868 207.833 46.6609 207.89Z" fill="#263238"/>
<path d="M48.0395 212.431C48.0757 212.483 47.8115 212.731 47.4541 212.989C47.0967 213.247 46.7652 213.412 46.7289 213.365C46.6927 213.319 46.9568 213.061 47.3194 212.803C47.682 212.545 48.0032 212.38 48.0395 212.431Z" fill="#263238"/>
<path d="M49.1479 216.961C49.1479 217.018 48.8371 217.152 48.4175 217.25C47.9979 217.348 47.6508 217.385 47.6353 217.328C47.6198 217.271 47.9461 217.137 48.3657 217.034C48.7853 216.93 49.1323 216.9 49.1479 216.961Z" fill="#263238"/>
<path d="M55.1516 205.837C55.1827 205.888 54.903 206.11 54.4989 206.26C54.0949 206.409 53.7323 206.43 53.7219 206.373C53.7116 206.317 54.0327 206.198 54.416 206.048C54.7994 205.899 55.1205 205.78 55.1516 205.837Z" fill="#263238"/>
<path d="M56.0061 212.881C55.9802 212.937 55.6486 212.839 55.2653 212.659C54.882 212.478 54.5919 212.287 54.6178 212.23C54.6437 212.174 54.9804 212.277 55.3637 212.452C55.7471 212.628 56.0371 212.824 56.0061 212.881Z" fill="#263238"/>
<path d="M57.5237 217.927C57.1806 217.91 56.8451 217.82 56.5395 217.664C56.0215 217.463 55.6226 217.251 55.6434 217.189C55.9847 217.207 56.3185 217.297 56.6224 217.453C57.1404 217.654 57.5444 217.865 57.5237 217.927Z" fill="#263238"/>
<path d="M49.3913 221.879C49.3603 221.822 49.7643 221.554 50.2305 221.188C50.6967 220.821 51.0593 220.491 51.1059 220.538C51.1525 220.584 50.8573 220.981 50.3704 221.363C50.0995 221.624 49.76 221.803 49.3913 221.879Z" fill="#263238"/>
<path d="M53.3902 219.299C53.328 219.299 53.24 218.969 53.0846 218.576C52.9292 218.184 52.7738 217.869 52.8256 217.833C52.8774 217.797 53.1364 218.066 53.297 218.494C53.4575 218.922 53.4524 219.299 53.3902 219.299Z" fill="#263238"/>
<path d="M52.318 213.246C52.2818 213.298 52.0228 213.174 51.7379 212.973C51.453 212.772 51.2561 212.565 51.2924 212.514C51.3286 212.462 51.5876 212.586 51.8725 212.787C52.1574 212.988 52.3698 213.195 52.318 213.246Z" fill="#263238"/>
<path d="M61.6421 203.742C61.6784 203.793 61.4246 204.041 61.0775 204.294C60.7305 204.547 60.4197 204.717 60.3834 204.666C60.3471 204.614 60.5958 204.371 60.9428 204.113C61.2899 203.855 61.6421 203.69 61.6421 203.742Z" fill="#263238"/>
<path d="M63.0666 207.57C63.0666 207.632 62.6781 207.714 62.1912 207.662C61.7043 207.611 61.3365 207.446 61.352 207.389C61.3676 207.332 61.7509 207.389 62.2171 207.435C62.6833 207.482 63.0614 207.508 63.0666 207.57Z" fill="#263238"/>
<path d="M57.0215 208.432C57.0215 208.489 56.6745 208.618 56.1979 208.649C55.7213 208.68 55.3484 208.603 55.3536 208.541C55.3587 208.479 55.7317 208.458 56.1875 208.427C56.6434 208.396 57.0112 208.37 57.0215 208.432Z" fill="#263238"/>
<path d="M57.5444 204.809C57.5444 204.871 57.1715 204.881 56.7674 204.69C56.3634 204.5 56.1303 204.226 56.1717 204.174C56.2132 204.123 56.4929 204.319 56.8607 204.484C57.2284 204.649 57.5496 204.747 57.5444 204.809Z" fill="#263238"/>
<path d="M63.5847 211.682C63.5536 211.734 63.1755 211.558 62.7404 211.285C62.3053 211.011 61.9841 210.769 62.0204 210.696C62.0566 210.624 62.4296 210.825 62.8647 211.094C63.2998 211.362 63.621 211.63 63.5847 211.682Z" fill="#263238"/>
<path d="M78.3314 222.426H46.0859V228.117H78.3314V222.426Z" fill="#29935C"/>
<path d="M48.4951 226.992L52.4164 244.005H71.6342L75.9232 226.992H48.4951Z" fill="#29935C"/>
<path d="M78.3161 228.127C78.3161 228.189 71.0641 228.241 62.0716 228.241C53.0791 228.241 45.8271 228.189 45.8271 228.127C45.8271 228.065 53.0791 228.014 62.0716 228.014C71.0641 228.014 78.3161 228.07 78.3161 228.127Z" fill="#263238"/>
<path d="M60.3827 208.556C60.3309 208.587 60.1082 208.334 59.8906 207.983C59.6731 207.632 59.5384 207.323 59.5902 207.292C59.642 207.261 59.8647 207.513 60.0823 207.864C60.2998 208.215 60.4345 208.52 60.3827 208.556Z" fill="#263238"/>
<path d="M60.3931 213.134C60.3775 212.837 60.4363 212.541 60.564 212.272C60.7142 211.813 60.8903 211.457 60.9473 211.477C60.9633 211.776 60.9045 212.074 60.7764 212.344C60.6054 212.798 60.4552 213.154 60.3931 213.134Z" fill="#263238"/>
<path d="M61.9687 217.942C61.9117 217.973 61.6734 217.586 61.4507 217.085C61.2719 216.795 61.1588 216.469 61.1191 216.131C61.1761 216.1 61.4144 216.487 61.6371 216.987C61.8159 217.278 61.929 217.603 61.9687 217.942Z" fill="#263238"/>
<path d="M58.5646 221.811C58.518 221.77 58.7096 221.476 58.9945 221.146C59.2794 220.816 59.5436 220.589 59.5954 220.63C59.6472 220.671 59.4504 220.97 59.1655 221.295C58.8806 221.621 58.6112 221.879 58.5646 221.811Z" fill="#263238"/>
<path d="M57.85 214.789C57.85 214.851 57.5288 214.846 57.1559 214.789C56.7829 214.732 56.4928 214.624 56.5032 214.562C56.5136 214.5 56.8244 214.505 57.1921 214.562C57.5599 214.619 57.8604 214.727 57.85 214.789Z" fill="#263238"/>
<path d="M170.034 183.305H93.5664V244.048H170.034V183.305Z" fill="#E0E0E0"/>
<g opacity="0.3">
<path d="M99.1357 183.428C108.139 186.628 118.069 187.314 127.729 187.494C129.734 187.531 131.759 187.525 133.697 188.01C135.634 188.495 137.504 189.595 138.499 191.323C139.581 193.207 139.467 195.565 138.851 197.644C138.234 199.724 137.172 201.648 136.406 203.676C135.048 207.264 134.633 211.138 135.199 214.93C135.373 216.546 135.919 218.1 136.794 219.471C137.238 220.152 137.835 220.721 138.538 221.131C139.242 221.541 140.032 221.782 140.845 221.834C143.751 221.876 145.74 219.032 147.18 216.514C153.091 206.194 159.483 194.481 163.264 183.217L99.1357 183.428Z" fill="black"/>
</g>
<path d="M119.622 243.722C119.544 243.722 119.487 230.259 119.487 213.655C119.487 197.05 119.544 183.582 119.622 183.582C119.7 183.582 119.757 197.044 119.757 213.655C119.757 230.265 119.695 243.722 119.622 243.722Z" fill="#455A64"/>
<path d="M150.956 138.412C150.728 136.895 146.18 131.89 146.18 131.89C146.18 131.89 143.911 122.803 143.227 120.125C143 119.351 142.667 118.612 142.238 117.927C140.63 115.258 138.343 113.06 135.608 111.555L129.314 108.03L127.812 104.697L112.697 96.957L108.599 104.181C108.599 104.181 98.6484 107.329 97.3326 109.563C96.0169 111.797 97.9853 141.968 97.9853 141.968C97.9853 141.968 93.8413 159.367 92.9452 162.969C92.049 166.571 93.2249 170.864 93.2249 170.864L100.637 161.602C102.943 158.722 107.998 157.396 111.629 157.448L142.663 157.587L141.414 148.929L166.522 153.769C166.522 153.769 170.837 145.378 171.184 145.213C171.531 145.048 150.956 138.412 150.956 138.412Z" fill="#29935C"/>
<path d="M112.055 106.994C111.837 106.772 113.805 113.402 116.281 120.157C117.613 123.807 118.292 127.661 118.286 131.545V156.003L133.163 154.997L130.941 138.888C130.941 138.888 129.128 128.495 128.62 124.543C128.154 120.931 126.548 111.127 126.548 111.127C126.548 111.127 118.286 113.315 112.055 106.994Z" fill="white"/>
<path d="M145.071 144.48C145.048 144.355 145.048 144.227 145.071 144.103C145.105 143.765 145.171 143.432 145.268 143.107C145.582 142.022 146.167 141.033 146.967 140.233C147.772 139.435 148.763 138.85 149.852 138.53C150.179 138.434 150.513 138.368 150.852 138.334C150.975 138.311 151.102 138.311 151.225 138.334C151.225 138.38 150.707 138.437 149.909 138.711C148.874 139.065 147.934 139.65 147.161 140.422C146.387 141.194 145.802 142.132 145.449 143.164C145.175 143.964 145.118 144.48 145.071 144.48Z" fill="#263238"/>
<path d="M145.838 138.619C146.529 138.215 147.311 137.99 148.112 137.964C148.905 137.854 149.713 137.95 150.458 138.242C150.458 138.325 149.422 138.124 148.133 138.242C146.843 138.361 145.869 138.697 145.838 138.619Z" fill="#263238"/>
<g opacity="0.3">
<path d="M96.4884 151.967L95.1934 153.422C96.5437 155.082 98.3737 156.289 100.436 156.879C102.514 157.318 104.637 157.509 106.76 157.447C107.621 157.488 108.482 157.406 109.319 157.204C110.164 156.962 110.946 156.487 111.821 156.435C112.408 156.438 112.992 156.521 113.556 156.683C114.124 156.843 114.725 156.852 115.297 156.709C115.58 156.633 115.832 156.467 116.013 156.238C116.195 156.008 116.298 155.727 116.307 155.434C109.849 153.554 103.203 152.391 96.4884 151.967Z" fill="black"/>
</g>
<path d="M138.964 153.835L135.338 149.975L127.801 148.092C127.801 148.092 120.922 150.156 120.756 150.156C120.59 150.156 114.768 148.567 114.768 148.567L112.732 156.007L123.222 156.724L135.198 156.245C135.198 156.245 135.825 155.667 135.452 155.269C135.079 154.872 137.457 155.94 137.736 155.95C138.016 155.961 138.555 156.178 138.928 155.734C139.182 155.404 139.523 154.428 138.964 153.835Z" fill="#FFBE9D"/>
<path d="M135.452 155.244C135.045 155.168 134.646 155.054 134.261 154.904C133.535 154.677 132.525 154.388 131.401 154.078C130.277 153.769 129.241 153.562 128.49 153.433C128.079 153.38 127.675 153.285 127.283 153.149C127.698 153.131 128.114 153.163 128.521 153.242C129.512 153.38 130.494 153.573 131.463 153.82C132.434 154.066 133.389 154.369 134.323 154.728C134.72 154.852 135.099 155.025 135.452 155.244Z" fill="#EB996E"/>
<path d="M138.964 153.835C138.399 153.693 137.842 153.52 137.296 153.319C136.26 152.978 134.846 152.555 133.256 152.117C131.665 151.678 130.256 151.178 129.184 151.116C128.607 151.086 128.028 151.108 127.454 151.183C127.594 151.106 127.747 151.054 127.905 151.028C128.328 150.937 128.762 150.902 129.195 150.925C130.303 150.925 131.785 151.394 133.339 151.859C134.893 152.323 136.353 152.751 137.369 153.143C137.887 153.334 138.275 153.51 138.555 153.634C138.7 153.68 138.838 153.748 138.964 153.835Z" fill="#EB996E"/>
<path d="M97.3326 109.562C97.3326 109.562 91.9195 113.314 90.5986 118.711C89.2777 124.109 83.5745 146.168 84.7452 149.465C85.9159 152.762 108.677 156.002 108.677 156.002L111.376 144.65L99.8138 141.498C99.8138 141.498 99.9641 130.997 100.109 126.647C100.254 122.297 97.3326 109.562 97.3326 109.562Z" fill="#29935C"/>
<path d="M111.23 146.359L114.955 147.273L112.712 155.828L109.055 155.245L111.23 146.359Z" fill="white"/>
<path d="M84.6621 148.298C84.6621 148.298 84.6621 148.489 84.7191 148.814C84.845 149.313 85.1216 149.762 85.5116 150.099C86.501 151.018 88.3917 151.781 90.7849 152.21C91.8779 152.571 93.1262 152.855 94.4575 153.154C95.7888 153.453 97.2288 153.758 98.7414 154.062C101.772 154.681 105.123 155.332 108.677 155.992L108.521 156.09C108.775 155.058 109.039 153.928 109.324 152.798C109.961 150.218 110.583 147.679 111.168 145.29L111.261 145.445L101.01 142.55C99.5948 141.957 98.0633 141.688 96.5295 141.766C95.3639 141.831 94.2188 142.1 93.147 142.561C92.4658 142.854 91.8151 143.214 91.2045 143.634L90.7331 143.974C90.6815 144.016 90.626 144.052 90.5673 144.083C90.5673 144.083 90.6139 144.031 90.7124 143.949C90.8108 143.866 90.961 143.737 91.1682 143.582C91.7698 143.138 92.4176 142.759 93.1003 142.452C94.179 141.965 95.3373 141.677 96.5191 141.601C98.0798 141.502 99.6425 141.759 101.088 142.354L111.37 145.223L111.495 145.254L111.463 145.378C110.878 147.767 110.262 150.285 109.63 152.891C109.35 154.016 109.081 155.13 108.822 156.178L108.791 156.302H108.666C105.113 155.636 101.766 154.975 98.7362 154.346C97.2236 154.031 95.7888 153.716 94.4523 153.407C93.1159 153.097 91.8623 152.803 90.7642 152.426C88.3399 151.967 86.4492 151.173 85.4495 150.208C85.0531 149.853 84.7808 149.381 84.6725 148.861C84.6351 148.676 84.6316 148.485 84.6621 148.298Z" fill="#263238"/>
<path d="M100.446 142.266C100.415 142.302 100.027 141.946 99.3326 141.487C97.5148 140.275 95.366 139.649 93.1787 139.697C92.3396 139.697 91.8268 139.81 91.8164 139.764C92.2504 139.607 92.707 139.522 93.1684 139.511C95.4159 139.349 97.6472 139.995 99.4569 141.332C99.8362 141.587 100.171 141.903 100.446 142.266Z" fill="#263238"/>
<path d="M101.964 123.795C101.983 124.025 101.983 124.256 101.964 124.486C101.964 124.935 101.917 125.575 101.855 126.37C101.725 127.954 101.492 130.137 101.073 132.531C100.745 134.579 100.265 136.6 99.6378 138.578C99.5135 138.955 99.3788 139.296 99.27 139.61L98.9385 140.353C98.8414 140.565 98.7215 140.766 98.5811 140.952C98.646 140.731 98.7328 140.516 98.8401 140.312C98.9281 140.09 99.0214 139.837 99.1301 139.559C99.2389 139.28 99.3425 138.919 99.4565 138.527C100.023 136.542 100.474 134.526 100.808 132.49C101.223 130.106 101.487 127.933 101.663 126.354C101.741 125.606 101.808 124.982 101.86 124.486C101.867 124.253 101.901 124.02 101.964 123.795Z" fill="#263238"/>
<path d="M115.162 117.948C115.162 117.948 115.111 117.808 114.986 117.566C114.802 117.222 114.533 116.931 114.204 116.72C113.961 116.553 113.683 116.445 113.391 116.402C113.099 116.359 112.802 116.383 112.521 116.472C112.164 116.593 111.846 116.805 111.597 117.087C111.348 117.368 111.177 117.709 111.101 118.077L111.029 118.443L110.868 118.102C110.262 116.807 109.735 115.477 109.288 114.119C108.497 111.857 108.101 109.476 108.118 107.081C108.118 106.621 108.18 106.209 108.206 105.842C108.232 105.476 108.315 105.172 108.372 104.924C108.426 104.663 108.502 104.408 108.599 104.16C108.423 105.124 108.324 106.101 108.304 107.081C108.347 109.45 108.765 111.797 109.542 114.036C109.989 115.384 110.508 116.707 111.096 117.999L110.863 118.03C110.952 117.624 111.147 117.249 111.428 116.942C111.709 116.635 112.066 116.407 112.464 116.281C112.772 116.188 113.098 116.168 113.415 116.223C113.733 116.278 114.033 116.405 114.292 116.596C114.629 116.831 114.894 117.154 115.059 117.53C115.104 117.629 115.137 117.733 115.157 117.839C115.168 117.906 115.173 117.948 115.162 117.948Z" fill="#263238"/>
<path d="M127.791 119.109C127.736 118.908 127.696 118.703 127.672 118.495C127.559 117.926 127.522 117.345 127.563 116.767C127.68 115.877 128.125 115.062 128.812 114.481C129.236 114.132 129.769 113.941 130.319 113.939C130.619 113.935 130.916 113.997 131.189 114.119C131.463 114.241 131.707 114.421 131.904 114.646L131.676 114.78L131.184 113.547C130.215 111.116 129.355 108.903 128.744 107.308L128.035 105.404C127.936 105.177 127.861 104.94 127.812 104.697C127.939 104.911 128.047 105.135 128.133 105.368C128.34 105.884 128.604 106.488 128.926 107.241C129.583 108.825 130.48 111.018 131.438 113.433L131.925 114.672L132.241 115.466L131.723 114.801C131.552 114.603 131.339 114.445 131.1 114.338C130.861 114.231 130.602 114.178 130.34 114.181C129.847 114.178 129.367 114.344 128.983 114.651C128.335 115.19 127.903 115.942 127.765 116.772C127.709 117.337 127.72 117.907 127.796 118.469C127.821 118.682 127.819 118.897 127.791 119.109Z" fill="#263238"/>
<path d="M137.4 120.389C137.473 120.389 138.643 128.222 140.016 137.907C141.389 147.592 142.435 155.451 142.362 155.451C142.29 155.451 141.119 147.618 139.747 137.907C138.374 128.196 137.328 120.399 137.4 120.389Z" fill="#263238"/>
<g opacity="0.3">
<path d="M109.443 114.201C109.506 116.208 109.944 118.185 110.733 120.032C111.298 119.335 111.925 118.603 112.805 118.396C113.872 118.143 114.955 118.799 115.727 119.604C115.593 118.799 115.274 118.036 114.794 117.375C114.555 117.05 114.243 116.784 113.884 116.599C113.524 116.413 113.127 116.313 112.722 116.306C112.319 116.316 111.93 116.459 111.618 116.713C111.306 116.967 111.087 117.318 110.997 117.71L109.511 114.237" fill="black"/>
</g>
<path d="M100.694 119.872C100.647 119.872 100.663 119.33 100.508 118.489C100.295 117.393 99.867 116.35 99.2488 115.419C98.9008 114.915 98.5034 114.447 98.0626 114.021C97.6974 113.676 97.3002 113.367 96.8764 113.097C96.146 112.638 95.6332 112.462 95.6539 112.416C95.7811 112.425 95.9056 112.457 96.0217 112.509C96.1667 112.548 96.3073 112.601 96.4413 112.669C96.6203 112.746 96.7935 112.835 96.9593 112.937C97.4098 113.191 97.8318 113.492 98.218 113.835C98.6826 114.266 99.0978 114.747 99.456 115.269C100.098 116.228 100.516 117.318 100.679 118.458C100.73 118.8 100.747 119.146 100.73 119.49C100.73 119.738 100.715 119.872 100.694 119.872Z" fill="#263238"/>
<path d="M130.764 83.0765C130.468 80.3134 129.139 77.7626 127.041 75.9316C124.942 74.1006 122.229 73.1236 119.44 73.1951H118.865C112.675 73.7111 109.661 79.2374 110.355 85.383L112.054 107.003L112.774 107.881C114.39 109.859 116.618 111.249 119.11 111.834C121.603 112.419 124.219 112.167 126.553 111.116L126.076 104.16C126.076 104.16 132.012 103.087 131.929 97.1529C131.893 94.2737 131.334 88.3809 130.764 83.0765Z" fill="#FFBE9D"/>
<path d="M126.123 104.144C123.359 104.221 120.631 103.504 118.265 102.08C118.265 102.08 120.207 106.306 126.138 105.62L126.123 104.144Z" fill="#EB996E"/>
<path d="M128.879 87.9584C128.885 88.1788 128.805 88.393 128.657 88.5564C128.508 88.7198 128.302 88.8198 128.081 88.8356C127.973 88.8463 127.864 88.8354 127.76 88.8037C127.657 88.772 127.56 88.7201 127.477 88.6509C127.394 88.5818 127.325 88.4968 127.275 88.401C127.225 88.3051 127.194 88.2003 127.185 88.0926C127.178 87.8719 127.257 87.657 127.406 87.4933C127.555 87.3297 127.762 87.23 127.983 87.2154C128.091 87.204 128.2 87.2144 128.304 87.2458C128.408 87.2773 128.505 87.3291 128.588 87.3984C128.672 87.4677 128.741 87.5529 128.791 87.6491C128.84 87.7453 128.87 87.8505 128.879 87.9584Z" fill="#263238"/>
<path d="M129.257 84.7327C129.19 84.8359 128.517 84.9081 127.703 85.3416C126.89 85.775 126.413 86.3168 126.305 86.3065C126.196 86.2962 126.305 86.1568 126.507 85.9143C126.817 85.5721 127.185 85.2873 127.595 85.0732C127.986 84.8556 128.414 84.7138 128.858 84.6553C129.164 84.6243 129.294 84.6811 129.257 84.7327Z" fill="#263238"/>
<path d="M120.28 88.4077C120.29 88.6291 120.212 88.8454 120.063 89.0097C119.913 89.174 119.705 89.2728 119.483 89.2849C119.374 89.2962 119.265 89.2859 119.161 89.2545C119.057 89.223 118.96 89.1711 118.877 89.1019C118.793 89.0326 118.725 88.9473 118.675 88.8512C118.625 88.755 118.595 88.6498 118.586 88.5418C118.579 88.3211 118.658 88.1062 118.807 87.9426C118.956 87.7789 119.163 87.6792 119.384 87.6646C119.492 87.6533 119.602 87.6636 119.706 87.695C119.81 87.7265 119.906 87.7784 119.99 87.8476C120.073 87.9169 120.142 88.0021 120.192 88.0983C120.242 88.1945 120.272 88.2997 120.28 88.4077Z" fill="#263238"/>
<path d="M120.176 85.9759C120.057 85.9759 119.503 85.6302 118.622 85.4135C117.742 85.1968 117.011 85.2432 116.934 85.171C116.856 85.0988 117.027 85.0678 117.343 85.042C117.804 85.0128 118.268 85.0564 118.716 85.171C119.149 85.2736 119.562 85.448 119.938 85.687C120.145 85.8521 120.207 85.9656 120.176 85.9759Z" fill="#263238"/>
<path d="M123.74 93.061C124.22 92.9014 124.717 92.7992 125.222 92.7565C125.455 92.7565 125.672 92.674 125.709 92.514C125.723 92.2749 125.663 92.0371 125.538 91.8329L124.797 90.0733C123.761 87.5759 123.025 85.5171 123.129 85.481C123.232 85.4448 124.165 87.4314 125.165 89.9289C125.413 90.5481 125.652 91.1363 125.874 91.6988C126.027 91.9754 126.079 92.2966 126.019 92.6069C125.987 92.6901 125.936 92.765 125.871 92.8257C125.805 92.8865 125.727 92.9317 125.641 92.9578C125.514 92.9976 125.381 93.0202 125.247 93.0249C124.749 93.1013 124.242 93.1135 123.74 93.061Z" fill="#263238"/>
<path d="M120.176 82.457C120.073 82.6995 119.166 82.5396 118.104 82.6118C117.042 82.684 116.141 82.942 116.032 82.7098C115.97 82.6015 116.136 82.3744 116.493 82.1526C116.974 81.88 117.511 81.7205 118.063 81.6866C118.616 81.6526 119.168 81.7449 119.679 81.9565C120.021 82.1371 120.207 82.3383 120.176 82.457Z" fill="#263238"/>
<path d="M129.237 82.6588C129.035 82.8704 128.247 82.6588 127.305 82.6588C126.362 82.6588 125.559 82.8188 125.372 82.602C125.29 82.4988 125.414 82.2873 125.761 82.086C126.239 81.8361 126.775 81.7135 127.315 81.73C127.859 81.7262 128.395 81.865 128.869 82.1325C129.211 82.344 129.325 82.5608 129.237 82.6588Z" fill="#263238"/>
<path d="M132.499 77.8029C132.447 77.5321 132.297 77.2897 132.077 77.1215C131.858 76.9532 131.584 76.8708 131.308 76.8896C131.606 76.8051 131.884 76.663 132.126 76.4716C132.247 76.3747 132.338 76.2458 132.388 76.0997C132.439 75.9537 132.447 75.7964 132.411 75.6461C132.256 75.1868 131.665 75.0888 131.199 74.9598C130.587 74.7826 130.045 74.4223 129.645 73.9278C129.08 73.2157 128.863 72.2869 128.371 71.5181C128.053 71.0217 127.627 70.6027 127.126 70.2918C126.624 69.981 126.058 69.7862 125.471 69.7218C124.883 69.6575 124.289 69.7252 123.731 69.9199C123.173 70.1147 122.667 70.4316 122.248 70.8473C121.791 70.3792 121.228 70.0267 120.607 69.8188C119.986 69.611 119.323 69.5539 118.676 69.6523C118.028 69.7507 117.413 70.0018 116.882 70.3846C116.351 70.7675 115.919 71.271 115.623 71.8535C114.828 71.5233 113.959 71.4121 113.106 71.5314C112.254 71.6507 111.449 71.9962 110.777 72.5317C110.104 73.0671 109.588 73.7728 109.284 74.5749C108.979 75.377 108.896 76.246 109.044 77.0908L112.753 79.3561C112.783 79.0751 112.873 78.8037 113.016 78.5598C113.159 78.3158 113.353 78.105 113.584 77.9411C113.815 77.7772 114.078 77.6641 114.357 77.6091C114.635 77.5542 114.922 77.5587 115.198 77.6223C116.317 77.9474 117.032 79.2374 118.192 79.3251C119.099 79.3922 119.87 78.6956 120.746 78.4634C121.808 78.1796 122.932 78.6027 123.89 79.1394C124.848 79.676 125.765 80.3468 126.832 80.6151C128.107 80.8697 129.43 80.7124 130.609 80.1662C131.132 79.9833 131.609 79.6893 132.007 79.3045C132.203 79.1114 132.35 78.8744 132.436 78.6132C132.522 78.352 132.543 78.0742 132.499 77.8029Z" fill="#263238"/>
<path d="M113.38 77.6118L130.37 77.5189C129.757 76.3814 128.867 75.4161 127.78 74.7118C125.524 73.0696 122.805 72.1792 120.01 72.168C117.239 72.168 111.696 75.7129 109.744 77.6685C108.19 79.2165 108.231 80.553 108.231 80.553C108.034 82.7511 109.334 85.197 109.889 87.3487C110.168 88.4529 110.754 91.7966 110.754 91.7966C111.686 91.7708 112.012 91.0175 111.847 90.099L111.572 86.487C112.489 85.7251 113.131 84.686 113.401 83.5275C113.672 82.3691 113.555 81.1544 113.069 80.0679C112.836 79.748 112.277 78.2568 113.38 77.6118Z" fill="#263238"/>
<path d="M111.329 86.2492C110.464 83.2564 109.666 80.0573 110.588 77.0645H110.07L109.863 77.2141C109.384 77.0538 108.866 77.0496 108.385 77.2022C107.903 77.3548 107.483 77.6563 107.185 78.0629C106.887 78.4695 106.727 78.96 106.728 79.4634C106.729 79.9667 106.891 80.4567 107.19 80.8622C106.685 80.8578 106.196 81.0373 105.814 81.367C105.433 81.6968 105.185 82.154 105.118 82.6527C105.12 83.3477 105.312 84.0291 105.672 84.6238C106.034 85.2203 106.256 85.8907 106.32 86.5847C106.342 86.9302 106.24 87.2723 106.034 87.5508C105.827 87.8292 105.529 88.0261 105.191 88.1068C105.354 88.4589 105.635 88.744 105.985 88.9141C106.335 89.0842 106.733 89.129 107.112 89.0408C106.871 89.629 106.466 90.1371 105.947 90.5062C107.055 91.2596 108.573 91.0222 109.775 90.4185C110.521 90.1198 111.129 89.5576 111.484 88.8396C111.816 88.0088 111.567 87.0955 111.329 86.2492Z" fill="#263238"/>
<path d="M111.049 89.7422C110.946 89.7009 106.905 88.6431 107.159 92.6937C107.413 96.7443 111.432 95.6762 111.432 95.5575C111.432 95.4388 111.049 89.7422 111.049 89.7422Z" fill="#FFBE9D"/>
<path d="M110.459 94.0886C110.459 94.0886 110.391 94.1402 110.272 94.2021C110.111 94.2817 109.926 94.2964 109.754 94.2434C109.314 94.1092 108.915 93.4539 108.853 92.7212C108.822 92.3711 108.869 92.0185 108.993 91.6892C109.026 91.559 109.09 91.4387 109.181 91.3389C109.271 91.2391 109.384 91.1627 109.511 91.1164C109.591 91.0915 109.678 91.0948 109.756 91.1258C109.834 91.1568 109.9 91.2136 109.941 91.2867C110.003 91.3951 109.977 91.4776 110.003 91.488C110.029 91.4983 110.086 91.4106 110.044 91.2454C110.011 91.149 109.95 91.0647 109.868 91.0029C109.811 90.963 109.746 90.9351 109.677 90.9209C109.609 90.9068 109.538 90.9066 109.469 90.9204C109.305 90.9635 109.153 91.0477 109.03 91.165C108.907 91.2824 108.816 91.429 108.765 91.5912C108.615 91.9537 108.553 92.346 108.584 92.7367C108.661 93.552 109.102 94.2847 109.723 94.4292C109.834 94.4533 109.948 94.4529 110.058 94.4279C110.168 94.403 110.271 94.354 110.36 94.2847C110.459 94.1866 110.474 94.0938 110.459 94.0886Z" fill="#EB996E"/>
<path d="M106.828 86.3844C106.828 86.3844 106.714 86.2296 106.75 85.9097C106.794 85.6926 106.884 85.4877 107.016 85.3094C107.147 85.131 107.317 84.9837 107.512 84.8777C108.095 84.6009 108.73 84.448 109.377 84.4287C109.738 84.4288 110.094 84.3437 110.417 84.1805C110.739 84.0173 111.018 83.7806 111.231 83.4896C111.569 82.8334 111.682 82.0848 111.552 81.3585C111.454 80.6774 111.272 80.0634 111.184 79.5319C111.02 78.9624 111.029 78.3573 111.21 77.793C111.214 78.3623 111.278 78.9296 111.402 79.4854C111.516 80.0014 111.718 80.6052 111.842 81.3224C111.999 82.1159 111.878 82.9389 111.5 83.6547C111.276 84.0247 110.935 84.3111 110.532 84.47C110.17 84.6036 109.792 84.687 109.408 84.7177C108.795 84.7213 108.189 84.8403 107.621 85.0686C107.443 85.1597 107.285 85.285 107.156 85.4374C107.027 85.5897 106.929 85.766 106.869 85.9561C106.846 86.0978 106.832 86.2409 106.828 86.3844Z" fill="#455A64"/>
<path d="M105.843 84.6244C105.843 84.6244 105.755 84.5108 105.719 84.258C105.677 83.9015 105.748 83.5408 105.921 83.226C106.04 83.0024 106.204 82.8056 106.403 82.6481C106.635 82.4744 106.901 82.3513 107.185 82.2869C107.459 82.2282 107.721 82.1198 107.957 81.967C108.061 81.8743 108.142 81.7592 108.195 81.6305C108.248 81.5018 108.271 81.3627 108.262 81.2239C108.262 80.9195 108.226 80.5944 108.236 80.2693C108.241 79.9588 108.275 79.6495 108.34 79.3457C108.444 78.8324 108.643 78.3427 108.925 77.9009C109.015 77.7388 109.144 77.6015 109.3 77.5015C109.457 77.4015 109.636 77.3419 109.821 77.3281C110.091 77.3281 110.205 77.452 110.194 77.4623C110.184 77.4726 110.06 77.4158 109.832 77.4623C109.676 77.4954 109.53 77.5638 109.405 77.6623C109.28 77.7607 109.18 77.8865 109.112 78.0299C108.878 78.4627 108.714 78.9293 108.625 79.4128C108.575 79.6991 108.549 79.989 108.547 80.2796C108.547 80.5789 108.594 80.8988 108.578 81.2497C108.586 81.4334 108.551 81.6164 108.476 81.7845C108.402 81.9527 108.29 82.1016 108.148 82.2198C107.881 82.3981 107.579 82.5193 107.262 82.5758C107.027 82.616 106.802 82.7058 106.604 82.8393C106.405 82.9728 106.238 83.1468 106.112 83.3498C105.9 83.7394 105.806 84.1824 105.843 84.6244Z" fill="#455A64"/>
<path d="M129.651 73.928C129.677 73.928 129.345 74.1499 128.811 73.9022C128.511 73.7399 128.248 73.5167 128.04 73.2469C127.783 72.9113 127.463 72.6291 127.097 72.4161C126.621 72.1498 126.078 72.027 125.534 72.0627C124.989 72.0984 124.467 72.2911 124.03 72.6174C123.512 72.9786 123.082 73.4894 122.476 73.9125C122.168 74.1402 121.815 74.3003 121.44 74.3821C121.053 74.4498 120.654 74.4123 120.285 74.2737C119.55 74.0106 118.969 73.5617 118.338 73.3346C117.728 73.1014 117.079 72.9841 116.426 72.9889C115.301 72.9875 114.207 73.3597 113.318 74.0467C112.724 74.5089 112.231 75.0864 111.868 75.7443C111.614 76.2139 111.521 76.5029 111.495 76.4925C111.469 76.4822 111.495 76.4151 111.536 76.2758C111.595 76.0749 111.668 75.8784 111.754 75.6876C112.088 74.9849 112.575 74.3647 113.178 73.8713C114.087 73.1309 115.221 72.7182 116.395 72.6999C117.086 72.682 117.774 72.7995 118.42 73.0457C119.104 73.2933 119.695 73.7423 120.363 73.9745C120.679 74.0959 121.023 74.1298 121.357 74.0725C121.682 73.9984 121.987 73.8578 122.254 73.6597C122.797 73.2727 123.253 72.7619 123.808 72.38C124.32 71.9976 124.944 71.7928 125.584 71.7969C126.13 71.8009 126.666 71.9468 127.138 72.2201C127.517 72.4604 127.845 72.7703 128.107 73.1334C128.288 73.3985 128.523 73.6234 128.796 73.7939C129.053 73.9462 129.359 73.9942 129.651 73.928Z" fill="#455A64"/>
<path d="M121.482 94.123C121.611 94.123 121.756 94.959 122.606 95.4492C123.456 95.9394 124.362 95.6917 124.393 95.8104C124.424 95.929 124.212 96.0168 123.823 96.089C123.316 96.1829 122.791 96.0952 122.342 95.8413C121.912 95.5933 121.593 95.1909 121.451 94.7164C121.358 94.3604 121.42 94.1282 121.482 94.123Z" fill="#263238"/>
<path d="M175.084 174.748C173.507 173.399 171.461 172.72 169.386 172.86L165.885 183.938C168.449 184.052 171.008 185.368 173.484 184.692C174.473 184.388 175.354 183.809 176.023 183.022C176.692 182.236 177.121 181.275 177.26 180.254C177.368 179.23 177.226 178.195 176.848 177.236C176.469 176.278 175.864 175.425 175.084 174.748Z" fill="#29935C"/>
<path d="M169.428 172.608C169.428 172.52 169.806 172.448 170.464 172.453C171.443 172.471 172.411 172.654 173.328 172.995C174.73 173.539 175.943 174.477 176.82 175.694C177.356 176.416 177.751 177.231 177.985 178.098C178.239 179.047 178.267 180.042 178.068 181.004C177.875 181.978 177.439 182.889 176.799 183.651C176.186 184.345 175.41 184.877 174.541 185.199C173.127 185.696 171.603 185.795 170.138 185.482C169.194 185.298 168.274 185.013 167.392 184.631C166.776 184.368 166.449 184.172 166.481 184.084C166.512 183.996 166.885 184.022 167.517 184.13C168.149 184.239 169.107 184.44 170.246 184.543C171.539 184.686 172.847 184.509 174.054 184.027C174.716 183.749 175.302 183.317 175.763 182.768C176.247 182.168 176.578 181.46 176.727 180.704C176.869 179.955 176.858 179.186 176.695 178.441C176.532 177.696 176.221 176.992 175.779 176.37C175.065 175.293 174.083 174.418 172.93 173.831C172.112 173.447 171.256 173.149 170.376 172.944C169.78 172.809 169.418 172.701 169.428 172.608Z" fill="#F5F5F5"/>
<path d="M136.986 214.172L129.371 235.426L155.867 244.998C156.633 242.418 144.766 232.407 144.766 232.407L150.205 218.991L136.986 214.172Z" fill="#29935C"/>
<g opacity="0.6">
<path d="M136.991 228.305C136.708 228.29 136.429 228.38 136.208 228.557C135.987 228.734 135.84 228.986 135.795 229.265C135.769 229.545 135.853 229.825 136.028 230.046C136.204 230.266 136.457 230.412 136.737 230.452C137.039 230.468 137.336 230.371 137.57 230.18C137.804 229.989 137.958 229.718 138.001 229.42C138.001 228.857 137.442 228.212 136.882 228.29" fill="white"/>
</g>
<path d="M129.371 235.425L130.143 233.283L155.307 243.283C155.307 243.283 156.302 244.217 155.867 244.996L129.371 235.425Z" fill="white"/>
<path d="M145.248 232.427C145.196 232.556 144.528 232.381 143.74 232.566C142.953 232.752 142.414 233.17 142.316 233.082C142.217 232.995 142.678 232.314 143.637 232.107C144.595 231.901 145.315 232.319 145.248 232.427Z" fill="#263238"/>
<path d="M147.63 234.58C147.63 234.714 146.972 234.73 146.335 235.096C145.698 235.462 145.361 236.015 145.232 235.963C145.102 235.911 145.289 235.153 146.092 234.683C146.895 234.214 147.63 234.456 147.63 234.58Z" fill="#263238"/>
<path d="M147.978 238.46C147.854 238.46 147.905 237.738 148.496 237.149C149.086 236.561 149.791 236.504 149.806 236.633C149.822 236.762 149.314 237 148.838 237.49C148.361 237.98 148.113 238.496 147.978 238.46Z" fill="#263238"/>
<path d="M146.144 229.233C146.045 229.331 145.517 228.938 144.771 228.717C144.025 228.495 143.367 228.526 143.342 228.391C143.316 228.257 144.025 227.994 144.896 228.262C145.766 228.531 146.247 229.155 146.144 229.233Z" fill="#263238"/>
<path d="M146.651 225.874C146.175 225.832 145.719 225.665 145.33 225.389C144.881 225.133 144.467 224.82 144.097 224.46C143.876 224.249 143.67 224.023 143.481 223.784C143.362 223.648 143.264 223.495 143.191 223.33C143.139 223.208 143.129 223.072 143.164 222.943C143.199 222.815 143.276 222.702 143.383 222.623C143.48 222.556 143.591 222.514 143.708 222.497C143.825 222.481 143.944 222.492 144.056 222.53C144.224 222.59 144.383 222.673 144.527 222.778C144.786 222.95 145.029 223.145 145.252 223.361C145.627 223.722 145.941 224.14 146.185 224.599C146.451 225.001 146.587 225.475 146.573 225.956C146.501 225.956 146.345 225.466 145.895 224.769C145.627 224.369 145.311 224.003 144.952 223.681C144.74 223.491 144.513 223.319 144.273 223.165C144.02 222.989 143.781 222.902 143.667 223C143.553 223.098 143.61 223.056 143.642 223.16C143.695 223.281 143.767 223.394 143.854 223.495C144.024 223.724 144.209 223.941 144.408 224.145C144.744 224.498 145.114 224.818 145.511 225.1C146.195 225.59 146.682 225.807 146.651 225.874Z" fill="#263238"/>
<path d="M146.418 226.009C146.306 225.541 146.346 225.05 146.532 224.606C146.689 224.108 146.929 223.641 147.242 223.223C147.429 222.977 147.639 222.749 147.868 222.542C148.005 222.394 148.177 222.283 148.368 222.22C148.559 222.157 148.763 222.143 148.961 222.181C149.078 222.227 149.18 222.305 149.254 222.407C149.328 222.508 149.372 222.628 149.381 222.753C149.39 222.926 149.377 223.1 149.339 223.269C149.258 223.688 149.093 224.087 148.855 224.441C148.616 224.796 148.309 225.099 147.951 225.333C147.185 225.849 146.589 225.787 146.594 225.741C146.599 225.695 147.112 225.576 147.754 225.06C148.12 224.764 148.417 224.392 148.625 223.971C148.745 223.726 148.831 223.466 148.878 223.197C148.941 222.903 148.915 222.635 148.801 222.63C148.684 222.625 148.568 222.646 148.46 222.692C148.353 222.737 148.257 222.806 148.179 222.893C147.964 223.074 147.767 223.274 147.589 223.491C147.285 223.861 147.037 224.273 146.853 224.714C146.532 225.493 146.496 226.009 146.418 226.009Z" fill="#263238"/>
<path d="M111.319 157.411C107.299 157.503 103.487 158.066 100.716 160.971C97.0429 164.825 92.5052 170.311 92.2462 174.113C91.8629 179.789 95.3076 181.492 97.8199 182.885C98.9312 183.484 100.183 183.775 101.446 183.727L147.9 183.376L149.356 175.538L119.312 168.159L120.56 156.895L111.319 157.411Z" fill="#263238"/>
<path d="M120.585 156.89L135.198 156.219C135.198 156.219 160.445 157.617 165.827 162.535C171.209 167.452 170.541 173.04 168.744 178.402C166.946 183.763 151.132 218.072 151.132 218.072C151.132 218.072 152.416 220.254 151.696 222.432C151.405 223.386 150.87 224.248 150.143 224.933C149.417 225.619 148.524 226.105 147.552 226.343L133.504 221.183C133.504 221.183 131.598 220.512 132.945 218.722C134.291 216.931 135.188 216.601 135.188 216.601V213.025C135.188 213.025 140.124 204.083 140.57 202.855C141.015 201.627 145.75 183.433 145.75 183.433L148.894 178.051C148.894 178.051 141.295 174.49 134.706 171.91L119.321 168.133L120.585 156.89Z" fill="#263238"/>
<path d="M144.29 220.554C143.865 220.308 143.453 220.039 143.057 219.749C141.072 218.468 138.837 217.622 136.499 217.267C136.009 217.22 135.521 217.148 135.038 217.051C135.531 216.994 136.029 217.003 136.52 217.076C138.916 217.331 141.205 218.199 143.166 219.594C143.581 219.864 143.959 220.186 144.29 220.554Z" fill="#455A64"/>
<path d="M151.308 218.098C151.002 217.848 150.729 217.56 150.495 217.242C150.018 216.69 149.386 215.905 148.729 215.007C148.071 214.11 147.501 213.279 147.112 212.665C146.881 212.344 146.686 211.997 146.532 211.633C146.81 211.913 147.057 212.223 147.268 212.556L148.946 214.847C149.573 215.694 150.148 216.457 150.645 217.123C150.901 217.423 151.123 217.75 151.308 218.098Z" fill="#455A64"/>
<path d="M156.436 173.16C156.436 173.201 155.918 173.315 155.105 173.583C152.975 174.283 151.046 175.483 149.479 177.082C149.174 177.433 148.85 177.769 148.511 178.088C148.73 177.671 149.009 177.289 149.34 176.953C150.093 176.105 150.965 175.37 151.93 174.77C152.893 174.166 153.94 173.705 155.038 173.403C155.489 173.252 155.96 173.17 156.436 173.16Z" fill="#455A64"/>
<path d="M142.088 197.453C142.094 197.349 142.113 197.247 142.145 197.148L142.362 196.297L143.202 193.175L146.076 182.901C146.662 180.894 147.159 178.985 147.724 177.251C148.32 175.745 149.221 174.376 150.371 173.232C151.13 172.456 151.97 171.764 152.878 171.168C153.204 170.961 153.458 170.806 153.639 170.714C153.726 170.659 153.818 170.612 153.914 170.574C153.914 170.574 153.562 170.812 152.94 171.25C152.062 171.874 151.247 172.581 150.505 173.361C149.396 174.501 148.529 175.852 147.957 177.334C147.439 179.042 146.921 180.977 146.335 182.974L143.388 193.221C143.005 194.506 142.689 195.554 142.461 196.317C142.352 196.658 142.269 196.937 142.197 197.153C142.174 197.258 142.138 197.358 142.088 197.453Z" fill="#455A64"/>
<path d="M129.164 171.245C129.086 171.245 128.781 168.531 128.475 165.167C128.17 161.802 127.957 159.068 128.061 159.063C128.164 159.057 128.439 161.777 128.744 165.141C129.05 168.505 129.237 171.24 129.164 171.245Z" fill="#455A64"/>
<path d="M104.839 178.536C104.797 178.536 104.574 178.118 104.113 177.473C103.518 176.634 102.805 175.885 101.995 175.249C101.179 174.621 100.277 174.112 99.3168 173.737C98.576 173.448 98.0943 173.339 98.1047 173.293C98.5407 173.313 98.9707 173.402 99.3789 173.556C101.405 174.221 103.135 175.568 104.274 177.364C104.525 177.721 104.716 178.117 104.839 178.536Z" fill="#455A64"/>
<path d="M113.79 168.629C113.79 168.67 113.148 168.278 112.075 167.788C109.262 166.515 106.141 166.071 103.083 166.508C101.917 166.673 101.208 166.88 101.197 166.833C101.348 166.748 101.51 166.686 101.679 166.647C102.129 166.509 102.588 166.398 103.052 166.317C106.145 165.776 109.332 166.232 112.148 167.618C112.57 167.825 112.978 168.059 113.37 168.319C113.524 168.403 113.665 168.507 113.79 168.629Z" fill="#455A64"/>
<path d="M148.786 175.523C148.661 175.517 148.538 175.496 148.418 175.461L147.382 175.239L143.601 174.408C140.405 173.696 135.981 172.737 131.075 171.772C126.17 170.807 121.715 170.007 118.488 169.455L114.66 168.8L113.624 168.619C113.502 168.605 113.382 168.575 113.267 168.531C113.39 168.535 113.512 168.545 113.634 168.562L114.67 168.696C115.577 168.82 116.887 169.016 118.509 169.269C121.746 169.785 126.211 170.539 131.122 171.509C136.033 172.479 140.446 173.464 143.637 174.223C145.227 174.605 146.517 174.925 147.403 175.157L148.439 175.425C148.557 175.447 148.673 175.48 148.786 175.523Z" fill="#455A64"/>
<path d="M119.337 169.481C119.285 169.481 119.177 168.872 118.695 168.005C118.413 167.505 118.064 167.045 117.659 166.638C117.147 166.136 116.604 165.667 116.032 165.234C114.979 164.459 113.865 163.769 112.702 163.17C112.209 162.937 111.735 162.668 111.282 162.365C111.803 162.529 112.308 162.742 112.79 163C113.992 163.555 115.134 164.231 116.198 165.017C116.777 165.458 117.325 165.939 117.835 166.457C118.251 166.886 118.6 167.375 118.871 167.907C119.057 168.267 119.198 168.648 119.291 169.042C119.333 169.184 119.349 169.333 119.337 169.481Z" fill="#455A64"/>
<path d="M171.081 176.473C171.138 176.535 170.361 177.314 169.755 178.506C169.149 179.698 168.952 180.771 168.874 180.755C168.872 179.921 169.094 179.102 169.516 178.382C169.86 177.619 170.399 176.961 171.081 176.473Z" fill="#263238"/>
<g opacity="0.3">
<path d="M137.83 123.604L141.156 146.937L141.321 147.309C142.101 139.242 140.903 131.107 137.83 123.604Z" fill="black"/>
</g>
<path d="M155.737 137.009L144.927 155.833L118.286 156.411L118.219 157.613L144.015 157.422L144.834 157.391L172.07 157.448L177.576 147.99L184.611 137.948C184.713 137.799 184.772 137.626 184.782 137.446C184.792 137.266 184.752 137.086 184.667 136.927C184.583 136.768 184.456 136.635 184.301 136.542C184.146 136.449 183.968 136.4 183.787 136.4L156.597 136.504C156.422 136.505 156.25 136.552 156.099 136.641C155.948 136.73 155.823 136.857 155.737 137.009Z" fill="#E0E0E0"/>
<path d="M177.576 148.004C177.576 148.004 178.975 149.284 178.757 150.367C178.54 151.451 178.607 152.261 177.576 152.333C177.596 152.73 177.461 153.118 177.201 153.419C176.941 153.72 176.574 153.909 176.178 153.948C176.178 153.948 176.494 155.651 174.505 155.945C174.505 155.945 173.893 157.767 172.64 157.323C171.917 157.078 171.223 156.758 170.568 156.368L170.2 155.708C170.2 155.708 168.351 155.016 168.807 153.979C169.086 153.35 170.039 153.185 170.039 153.185C169.93 152.926 169.883 152.645 169.904 152.365C169.925 152.085 170.012 151.814 170.159 151.575C170.599 150.981 172.039 151.471 172.039 151.471C172.009 150.963 172.172 150.462 172.495 150.068C173.013 149.485 175.282 151.059 175.282 151.059L176.53 149.573L177.576 148.004Z" fill="#FFBE9D"/>
<path d="M174.505 155.946C173.697 155.603 172.926 155.18 172.205 154.682C171.436 154.259 170.714 153.758 170.05 153.186C170.857 153.531 171.627 153.957 172.35 154.455C173.117 154.879 173.839 155.378 174.505 155.946Z" fill="#EB996E"/>
<path d="M176.177 153.949C175.426 153.655 174.71 153.278 174.043 152.825C173.33 152.448 172.662 151.995 172.049 151.473C172.801 151.764 173.518 152.142 174.183 152.598C174.896 152.974 175.564 153.427 176.177 153.949Z" fill="#EB996E"/>
<path d="M173.898 150.214C173.94 150.136 174.795 150.585 175.789 151.215C176.406 151.569 176.999 151.962 177.566 152.391C177.53 152.479 176.639 152.077 175.644 151.442C175.02 151.095 174.435 150.683 173.898 150.214Z" fill="#EB996E"/>
<path d="M184.611 137.122C184.568 137.129 184.524 137.129 184.481 137.122H184.098H182.627L177.219 137.163L159.374 137.204H158.073C157.882 137.186 157.689 137.22 157.515 137.301C157.341 137.383 157.192 137.51 157.084 137.669C156.67 138.405 156.266 139.131 155.872 139.846L153.572 143.974L149.671 150.956C148.563 152.927 147.656 154.527 147.019 155.657C146.714 156.173 146.465 156.616 146.289 156.926L146.092 157.251L146.02 157.359C146.02 157.359 146.02 157.313 146.066 157.236L146.242 156.895L146.931 155.605L149.521 150.863L153.375 143.85C154.1 142.535 154.867 141.152 155.654 139.722L156.872 137.529C157.004 137.333 157.187 137.175 157.401 137.072C157.615 136.969 157.852 136.924 158.089 136.941H159.389L177.234 136.977L182.642 137.024L184.113 137.05H184.497C184.538 137.067 184.577 137.092 184.611 137.122Z" fill="#263238"/>
<path d="M165.444 146.591C165.318 146.772 165.248 146.986 165.241 147.206C165.234 147.426 165.291 147.644 165.405 147.833C165.519 148.021 165.685 148.173 165.884 148.27C166.083 148.367 166.305 148.405 166.525 148.379C166.744 148.354 166.952 148.265 167.123 148.125C167.293 147.985 167.419 147.798 167.486 147.588C167.553 147.378 167.558 147.153 167.5 146.941C167.442 146.728 167.323 146.537 167.159 146.39C166.904 146.192 166.581 146.102 166.26 146.139C165.939 146.177 165.646 146.339 165.444 146.591Z" fill="white"/>
<g opacity="0.3">
<path d="M89.8163 139.32C89.5884 139.413 89.3242 139.568 89.3242 139.836C89.3325 139.936 89.3743 140.03 89.4429 140.103C89.5116 140.176 89.603 140.224 89.7024 140.239C90.0823 140.185 90.4545 140.087 90.8109 139.945C93.6133 139.331 95.9184 139.919 98.5809 140.977L98.6689 140.889C97.6122 138.603 92.8311 138.098 89.8163 139.32Z" fill="black"/>
</g>
<path d="M234.136 244.068C234.136 244.14 187.283 244.202 129.5 244.202C71.7174 244.202 24.8643 244.119 24.8643 244.068C24.8643 244.016 71.707 243.934 129.5 243.934C187.294 243.934 234.136 243.97 234.136 244.068Z" fill="#263238"/>
<path d="M75.3275 79.5729C75.4156 79.6607 92.6183 73.7731 92.6183 73.7731L85.9879 58.6543L70.6914 64.5006L79.1141 69.32L75.3275 79.5729Z" fill="#455A64"/>
<path d="M83.3975 63.2053V42.6221C83.3975 42.6221 107.127 38.298 124.226 38.556C141.325 38.814 158.932 41.6056 158.932 41.6056V61.3684C158.932 61.3684 105.34 56.6005 83.3975 63.2053Z" fill="#455A64"/>
<path d="M83.2734 63.2267L92.5974 73.8615V61.3691C92.5974 61.3691 84.8015 62.2979 83.2734 63.2267Z" fill="#263238"/>
<path d="M83.3975 42.6172C83.4752 42.6172 83.5062 47.2612 83.4752 52.9372C83.4441 58.6132 83.3509 63.2572 83.2783 63.2572C83.2058 63.2572 83.1695 58.6441 83.2006 52.9372C83.2317 47.2302 83.3198 42.6172 83.3975 42.6172Z" fill="#263238"/>
<path d="M166.962 77.9941C166.874 78.0818 149.671 72.1943 149.671 72.1943L156.286 57.0703L171.598 62.9063L163.17 67.7257L166.962 77.9941Z" fill="#455A64"/>
<path d="M159.026 61.648L149.702 72.2827V60.6934C152.828 60.8 155.944 61.1189 159.026 61.648Z" fill="#263238"/>
<path d="M158.923 41.6055C158.995 41.6055 159.078 46.0895 159.104 51.6262C159.13 57.1629 159.104 61.6469 159.016 61.6469C158.928 61.6469 158.86 57.1629 158.834 51.6262C158.809 46.0895 158.845 41.6055 158.923 41.6055Z" fill="#263238"/>
<path d="M96.7782 51.6465C96.7293 51.0539 96.8569 50.4602 97.145 49.9394C97.433 49.4187 97.8688 48.9941 98.3979 48.7187C98.9269 48.4434 99.5257 48.3296 100.119 48.3914C100.713 48.4533 101.275 48.6881 101.735 49.0665L101.01 49.9334C100.815 49.7559 100.583 49.6236 100.33 49.546C100.078 49.4684 99.8112 49.4474 99.5495 49.4845C99.0852 49.5488 98.6655 49.7942 98.3828 50.1668C98.1001 50.5394 97.9776 51.0085 98.0422 51.4711C98.1067 51.9336 98.3531 52.3517 98.7271 52.6333C99.1011 52.9149 99.5721 53.037 100.036 52.9727C100.3 52.9382 100.552 52.8451 100.774 52.7004C100.997 52.5557 101.184 52.3631 101.321 52.1367L102.233 52.7714C101.895 53.2609 101.42 53.6402 100.867 53.8619C100.313 54.0836 99.7069 54.1378 99.1229 54.0178C98.5389 53.8977 98.0035 53.6086 97.5837 53.1868C97.1638 52.765 96.8783 52.2292 96.7627 51.6465H96.7782Z" fill="white"/>
<path d="M102.429 50.8721C102.333 50.2763 102.418 49.6655 102.674 49.1186C102.93 48.5717 103.345 48.114 103.865 47.8047C104.386 47.4955 104.987 47.3489 105.592 47.384C106.196 47.4191 106.777 47.6343 107.257 48.0016C107.738 48.3689 108.097 48.8715 108.287 49.4443C108.478 50.0171 108.491 50.6337 108.326 51.2143C108.161 51.7948 107.825 52.3126 107.361 52.7005C106.897 53.0885 106.326 53.3287 105.724 53.3901C105.34 53.4511 104.948 53.4335 104.571 53.3385C104.194 53.2434 103.841 53.0728 103.533 52.8371C103.224 52.6015 102.967 52.3057 102.778 51.9678C102.588 51.6299 102.469 51.2571 102.429 50.8721ZM107.148 50.387C107.106 50.0522 106.966 49.7372 106.745 49.4812C106.525 49.2252 106.233 49.0396 105.907 48.9475C105.581 48.8555 105.236 48.861 104.913 48.9635C104.59 49.0659 104.305 49.2608 104.092 49.5237C103.88 49.7866 103.75 50.106 103.719 50.442C103.688 50.778 103.756 51.1157 103.917 51.413C104.077 51.7103 104.321 51.9541 104.62 52.1139C104.918 52.2737 105.257 52.3425 105.594 52.3117C105.827 52.2965 106.054 52.2333 106.26 52.1261C106.467 52.019 106.649 51.8703 106.796 51.6893C106.942 51.5084 107.048 51.2992 107.109 51.0751C107.17 50.8509 107.183 50.6166 107.148 50.387Z" fill="white"/>
<path d="M114.638 52.5905L114.416 49.2984L112.97 52.1158L112.401 52.1519L110.614 49.6132L110.826 52.833L109.629 52.9104L109.298 47.4254L110.334 47.3583L112.613 50.6349L114.421 47.1003L115.457 47.0332L115.83 52.5131L114.638 52.5905Z" fill="white"/>
<path d="M121.771 48.8344C121.802 50.0625 120.901 50.8468 119.43 50.8984L118.316 50.9294L118.363 52.4464L117.083 52.4825L116.928 46.9562L119.316 46.8891C120.792 46.8685 121.73 47.6063 121.771 48.8344ZM120.476 48.8705C120.476 48.2668 120.056 47.9263 119.274 47.9469L118.238 47.9779L118.295 49.8871L119.331 49.8561C120.108 49.8355 120.492 49.4691 120.476 48.8705Z" fill="white"/>
<path d="M122.766 46.8379H124.04V51.2961H126.806V52.3281H122.766V46.8379Z" fill="white"/>
<path d="M131.753 51.4564V52.4884L127.479 52.3645L127.64 46.8691L131.784 46.993L131.753 48.025L128.852 47.9373L128.821 49.1344L131.38 49.2066L131.349 50.1973L128.79 50.1199L128.754 51.3945L131.753 51.4564Z" fill="white"/>
<path d="M134.116 48.143L132.354 48.0398L132.417 47.0078L137.213 47.2968L137.151 48.3288L135.39 48.2204L135.121 52.6735L133.846 52.5961L134.116 48.143Z" fill="white"/>
<path d="M141.859 52.2087L141.766 53.2407L137.508 52.8485L138.026 47.3789L142.17 47.7607L142.077 48.7927L139.186 48.5038L139.077 49.6957L141.626 49.9279L141.538 50.9135L138.984 50.6813L138.87 51.9455L141.859 52.2087Z" fill="white"/>
<path d="M143.455 47.8809L145.936 48.2111C147.723 48.4485 148.806 49.6817 148.588 51.3071C148.371 52.9325 146.993 53.8871 145.206 53.6291L142.725 53.2989L143.455 47.8809ZM145.284 52.6126C145.509 52.6486 145.739 52.6393 145.961 52.5852C146.183 52.531 146.392 52.4332 146.575 52.2974C146.758 52.1616 146.912 51.9906 147.028 51.7946C147.144 51.5985 147.219 51.3813 147.249 51.1558C147.279 50.9304 147.263 50.7012 147.203 50.4818C147.143 50.2624 147.039 50.0572 146.898 49.8784C146.757 49.6997 146.581 49.5509 146.381 49.4409C146.181 49.3309 145.961 49.2619 145.734 49.2379L144.579 49.0831L144.128 52.4578L145.284 52.6126Z" fill="white"/>
<path d="M169.536 43.4772L170.893 45.0613L174.716 43.4772L173.597 41.8105L169.536 43.4772Z" fill="#455A64"/>
<path d="M167.785 35.9385C167.785 36.3304 167.668 36.7135 167.45 37.0393C167.231 37.3651 166.92 37.6191 166.557 37.7691C166.193 37.9191 165.794 37.9583 165.408 37.8818C165.022 37.8054 164.667 37.6167 164.389 37.3396C164.111 37.0625 163.922 36.7094 163.845 36.325C163.768 35.9407 163.808 35.5423 163.958 35.1802C164.109 34.8181 164.364 34.5087 164.691 34.291C165.018 34.0732 165.402 33.957 165.796 33.957C166.323 33.9584 166.828 34.1676 167.201 34.5389C167.574 34.9102 167.784 35.4134 167.785 35.9385Z" fill="#29935C"/>
<path d="M123.226 65.494C123.225 65.6904 123.166 65.8821 123.055 66.0446C122.945 66.2072 122.788 66.3333 122.605 66.407C122.422 66.4808 122.222 66.4987 122.029 66.4586C121.836 66.4186 121.659 66.3222 121.521 66.1819C121.383 66.0416 121.29 65.8637 121.254 65.6706C121.218 65.4776 121.24 65.2782 121.318 65.0977C121.396 64.9173 121.526 64.764 121.691 64.6572C121.857 64.5505 122.05 64.4951 122.247 64.4982C122.509 64.5022 122.759 64.6091 122.942 64.7956C123.126 64.9821 123.228 65.2331 123.226 65.494Z" fill="#29935C"/>
<path d="M76.8915 50.603C76.8915 50.7525 76.8468 50.8985 76.7633 51.0226C76.6797 51.1467 76.561 51.2433 76.4222 51.3C76.2834 51.3567 76.1308 51.371 75.9838 51.3411C75.8368 51.3112 75.7021 51.2384 75.5967 51.132C75.4914 51.0256 75.4202 50.8904 75.3922 50.7436C75.3642 50.5968 75.3807 50.445 75.4395 50.3075C75.4983 50.1701 75.5969 50.0531 75.7226 49.9716C75.8483 49.8901 75.9955 49.8476 76.1455 49.8497C76.3443 49.8524 76.534 49.933 76.6736 50.0739C76.8132 50.2149 76.8915 50.405 76.8915 50.603Z" fill="#29935C"/>
<path d="M74.084 42.3113L76.3114 42.4454L77.3681 38.0801L75.2857 38.1678L74.084 42.3113Z" fill="#455A64"/>
<path d="M143.703 77.1559L144.454 79.2509L148.899 78.5078L148.003 76.6348L143.703 77.1559Z" fill="#29935C"/>
<path d="M98.7516 65.0664L97.3789 66.8208L100.388 70.1593L101.497 68.3998L98.7516 65.0664Z" fill="#455A64"/>
<path d="M93.4313 23.8555L98.689 29.1961L106.091 26.4097L106.387 28.2415L103.18 34.7792L106.138 39.6605L105.889 41.1208L98.7253 39.9185L94.4881 44.5471L93.4935 43.7989L92.6181 37.9113L85.9359 34.4438L85.6406 33.097L92.3694 31.2652L93.4313 23.8555Z" fill="#E9DE08"/>
<g opacity="0.3">
<path d="M93.4313 23.8555L98.689 29.1961L106.091 26.4097L106.387 28.2415L103.18 34.7792L106.138 39.6605L105.889 41.1208L98.7253 39.9185L94.4881 44.5471L93.4935 43.7989L92.6181 37.9113L85.9359 34.4438L85.6406 33.097L92.3694 31.2652L93.4313 23.8555Z" fill="black"/>
</g>
<path d="M93.4313 22.3535L98.689 27.6993L106.091 26.4093L102.615 33.045L106.138 39.6602L98.7253 38.4218L93.4935 43.7985L92.3902 36.3939L85.6406 33.0966L92.3694 29.7633L93.4313 22.3535Z" fill="#E9DE08"/>
<path d="M147.951 23.8555L142.688 29.1961L135.285 26.4097L134.99 28.2415L138.197 34.7792L135.239 39.6605L135.488 41.1208L142.651 39.9185L146.889 44.5471L147.883 43.7989L148.759 37.9113L155.441 34.4438L155.736 33.097L149.007 31.2652L147.951 23.8555Z" fill="#E9DE08"/>
<g opacity="0.3">
<path d="M147.951 23.8555L142.688 29.1961L135.285 26.4097L134.99 28.2415L138.197 34.7792L135.239 39.6605L135.488 41.1208L142.651 39.9185L146.889 44.5471L147.883 43.7989L148.759 37.9113L155.441 34.4438L155.736 33.097L149.007 31.2652L147.951 23.8555Z" fill="black"/>
</g>
<path d="M147.951 22.3535L142.688 27.6993L135.286 26.4093L138.762 33.045L135.239 39.6602L142.652 38.4218L147.884 43.7985L148.987 36.3939L155.737 33.0966L149.008 29.7633L147.951 22.3535Z" fill="#E9DE08"/>
<path d="M120.518 14.4785L124.895 22.9977L134.991 22.4043L134.649 24.7469L128.236 31.5117L129.971 38.586L129.116 40.2734L120.834 36.0886L113.898 40.134L112.97 38.8389L114.151 31.3208L107.324 24.556L107.48 22.8068L116.389 23.1215L120.518 14.4785Z" fill="#E9DE08"/>
<g opacity="0.3">
<path d="M120.518 14.4785L124.895 22.9977L134.991 22.4043L134.649 24.7469L128.236 31.5117L129.971 38.586L129.116 40.2734L120.834 36.0886L113.898 40.134L112.97 38.8389L114.151 31.3208L107.324 24.556L107.48 22.8068L116.389 23.1215L120.518 14.4785Z" fill="black"/>
</g>
<path d="M121.087 12.6523L125.464 21.1663L134.99 22.4047L128.21 29.185L129.971 38.5865L121.409 34.2624L112.97 38.8393L114.457 29.3862L107.479 22.8072L116.964 21.2902L121.087 12.6523Z" fill="#E9DE08"/>
<path d="M138.528 89.0769L145.842 89.8819C148.312 86.3995 151.999 83.963 156.181 83.0513C160.362 82.1397 164.734 82.8187 168.438 84.9549C172.142 87.0912 174.91 90.5302 176.198 94.5961C177.486 98.662 177.201 103.061 175.398 106.928C173.596 110.795 170.407 113.851 166.458 115.495C162.509 117.139 158.085 117.252 154.057 115.812C150.028 114.372 146.686 111.484 144.686 107.714C142.687 103.944 142.176 99.5656 143.252 95.4392L138.528 89.0769Z" fill="#FAFAFA"/>
<path d="M138.528 89.0763C138.813 89.4581 140.295 91.4086 143.32 95.4076H143.211C143.215 95.3991 143.22 95.3915 143.227 95.3855C143.234 95.3794 143.243 95.375 143.251 95.3725C143.26 95.37 143.27 95.3696 143.279 95.3712C143.288 95.3728 143.297 95.3764 143.304 95.3818C143.316 95.3891 143.326 95.3999 143.332 95.4129C143.337 95.4259 143.338 95.4403 143.335 95.454C142.594 98.3488 142.633 101.387 143.449 104.262C143.689 105.125 144.006 105.964 144.397 106.77C144.604 107.183 144.801 107.606 145.024 108.024L145.796 109.247C148.261 112.806 151.989 115.301 156.228 116.228C158.575 116.742 161.005 116.753 163.356 116.259C165.835 115.722 168.164 114.647 170.178 113.112C172.288 111.516 173.984 109.44 175.125 107.059C176.306 104.637 176.889 101.969 176.824 99.2776C176.749 96.7027 176.094 94.1775 174.907 91.8885C173.792 89.7185 172.211 87.8195 170.277 86.326C166.792 83.6432 162.407 82.3947 158.026 82.8378C156.175 83.0592 154.367 83.5566 152.665 84.3136C149.955 85.5608 147.621 87.4927 145.894 89.9173C145.889 89.9273 145.88 89.9351 145.87 89.9398C145.86 89.9445 145.848 89.9456 145.837 89.9432L138.528 89.0763L145.853 89.8142L145.791 89.8451C147.512 87.3876 149.857 85.429 152.587 84.1691C154.298 83.3836 156.12 82.865 157.99 82.6314C162.431 82.163 166.883 83.4158 170.422 86.1299C172.389 87.6411 173.997 89.567 175.13 91.7698C176.341 94.0918 177.009 96.6568 177.083 99.2724C177.151 102.006 176.562 104.717 175.363 107.178C174.202 109.596 172.477 111.703 170.334 113.323C168.286 114.88 165.92 115.969 163.403 116.512C161.01 117.013 158.537 116.998 156.151 116.466C151.866 115.525 148.101 112.996 145.62 109.391L144.843 108.153C144.62 107.73 144.423 107.296 144.211 106.878C143.821 106.062 143.506 105.212 143.268 104.34C142.456 101.434 142.434 98.3654 143.206 95.4489L143.33 95.4953C143.321 95.5103 143.306 95.5212 143.289 95.526C143.271 95.5307 143.253 95.529 143.237 95.5211L138.528 89.0763Z" fill="#263238"/>
<path d="M153.534 93.6221C153.54 93.7011 153.54 93.7804 153.534 93.8594C153.534 94.0297 153.534 94.2464 153.534 94.5199C153.534 95.1185 153.534 95.9492 153.566 97.0019C153.566 99.1433 153.602 102.162 153.628 105.774L153.509 105.655H165.697C165.728 105.624 165.443 105.908 165.562 105.784V104.133C165.562 103.591 165.562 103.049 165.562 102.513V99.3703C165.562 97.3373 165.562 95.4126 165.562 93.6427L165.676 93.7614L156.87 93.6995L154.379 93.6737H153.716H153.477H153.69H154.332L156.793 93.6427L165.666 93.5859H165.785V93.6995C165.785 95.4693 165.785 97.394 165.785 99.4271V105.779C165.909 105.66 165.625 105.949 165.65 105.918H153.462H153.343V105.779C153.343 102.136 153.384 99.0968 153.4 96.9399C153.4 95.9079 153.4 95.072 153.431 94.4838C153.431 94.2206 153.431 94.0091 153.431 93.8439C153.455 93.7657 153.49 93.6911 153.534 93.6221Z" fill="#263238"/>
<path d="M164.407 95.6291C164.583 95.7684 162.946 98.1213 160.745 100.887C160.31 101.439 159.88 101.966 159.481 102.435L159.222 102.75L158.932 102.487C157.026 100.779 155.736 99.4681 155.85 99.3339C155.964 99.1998 157.461 100.283 159.434 101.914L158.88 101.966C159.258 101.45 159.673 100.934 160.113 100.387C162.309 97.6208 164.236 95.4949 164.407 95.6291Z" fill="#29935C"/>
</svg>
